<?xml version="1.0" encoding="UTF-8"?>
<svg xmlns="http://www.w3.org/2000/svg" xmlns:xlink="http://www.w3.org/1999/xlink" version="1.1" id="Ebene_1" x="0px" y="0px" width="200px" height="200px" viewBox="0 0 200 200" style="enable-background:new 0 0 200 200;" xml:space="preserve">
<style type="text/css">
	.st0{fill:#FFD126;}
	.st1{fill:#1D1D1B;}
</style>
<circle class="st0" cx="100" cy="100" r="100"></circle>
<g>
	<g>
		<polygon class="st1" points="86.1,141.7 86.1,141 111.2,110 112.6,111.7 94.3,141.7   "></polygon>
		<polygon class="st1" points="139.6,79.3 139.6,80 112.6,111.7 111.2,110 131.3,79.3   "></polygon>
	</g>
	<g>
		<path class="st1" d="M48.2,83.1l-3.8-0.6c6.2-37.3,58.4-2.8,16.1,10.5c-10.8,3.6-13.6,6.3-13.9,14c8-0.6,22.1-0.5,30.7-0.5v3.5    H43.1C38.8,87,71.5,94,72.5,78.1C71.9,64.4,47.7,67.5,48.2,83.1z"></path>
		<path class="st1" d="M103.1,99.1v11h-3.9v-11H72v-3.3l26.7-29h4.4v28.9h7.3v3.5H103.1z M99.1,95.6V71.3l-0.4-0.1L76.5,95.6    l0.4,0.7C84.4,95.6,92,95.6,99.1,95.6z"></path>
	</g>
	<g>
		<path class="st1" d="M120.7,109.7h35.6v3.7c-11.7,11.6-17.4,25.4-18.6,39.6h-4.3c1.2-14,8-29.2,19.2-40.3    c-9,0.8-22.6,0.7-31.9,0.7V109.7z"></path>
	</g>
</g>
</svg>
