<?xml version="1.0" encoding="UTF-8"?>
<svg xmlns="http://www.w3.org/2000/svg" xmlns:xlink="http://www.w3.org/1999/xlink" version="1.1" id="Ebene_1" x="0px" y="0px" width="200px" height="200px" viewBox="0 0 200 200" style="enable-background:new 0 0 200 200;" xml:space="preserve">
<style type="text/css">
	.st0{fill:#FFD126;}
	.st1{fill-rule:evenodd;clip-rule:evenodd;fill:#221E20;}
</style>
<circle class="st0" cx="100" cy="100" r="100"></circle>
<g>
	<g>
		<path d="M119.8,19.9c-1.5,0.3-3.2,1.1-4.7,1.9c-1.4,0.7-3,1.7-4.1,2.6c-0.5,0.4-1.1,1-1.6,1.5c-0.2,0.3-0.3,0.6-0.5,0.9    c-0.3,0.3-0.6,0.5-0.8,0.7c-0.3,0.4-0.4,1-0.7,1.6c-0.2,0.5-0.6,0.9-0.8,1.4c-0.8,1.6-0.9,2.8-1.9,4.2c-0.3,0.4-0.7,0.9-1,1    c-0.9,0.5-2.1,0.3-3,0.6c-0.8,0.2-1.6,0.8-2.5,1.1c-0.5,0.2-1,0.1-1.5,0.3c-2.9,0.8-6.1,2.3-9.1,3.3c-0.8,0.3-1.7,0.4-2.5,0.7    c-2.4,0.8-4.7,1.9-7,2.7c-2.7,0.9-6.2,2.5-9.2,3.3c-0.4,0.1-0.9,0.1-1.3,0.2c-0.7,0.2-1.6,0.7-2.5,1c-1,0.3-2.1,0.5-2.8,0.9    c-1.1,0.6-2.1,2.1-3,3c-1,1.1-2.1,2-3,2.9c-0.2,0.8-0.8,1.1-0.8,1.7c0,0.4,0.2,1.8,0.3,2.2c0.5,1.4,1.3,1.5,2.3,2.3    c1.5,1.2,3.7,2.9,5.1,3.8c2.1,0.1,4.6-1.3,7.1-2.1c0.7-0.2,1.6-0.3,2.3-0.6c0.5-0.2,1-0.6,1.5-0.8c0.5-0.2,1.1-0.2,1.4-0.5    c0.3-0.2,0.5-0.5,0.7-0.8c0.3-0.3,0.6-0.6,0.7-0.8c0.5-0.9,0.1-2.2,1.1-2.9c0.9-0.4,2-0.6,2.6-0.9c1.3,1.1,2.4,2.9,3.6,4.2    c1.7-0.2,3.8-1.2,5.7-1.9c0.3-0.8,0-1.5,0.2-2.3c0.1-0.6,0.1-1.5-0.2-2.4c0.6-0.6,1.5-1.1,2.6-1.4c0.8,0.2,1.4,1.3,2.3,2.1    c0.7,0.8,1.4,1.9,2.3,1.9c0.8,0,3.1-1,3.5-1.6c0.3-0.5,0-1.9,0-2.6c0-0.3,0.2-0.5,0.2-0.7c0-0.1-0.1-0.3-0.1-0.4    c0-0.1,0.3-0.1,0.3-0.2c0.2-0.5,0-1,0.4-1.4c1.5,1.4,2.3,3.7,4.4,3.8c1.2,0,2.4-0.6,3.9-1.2c1.2,0.8,2.3,1.9,3.5,2.7    c0.4,0.3,0.9,0.6,1.4,1c0.5,0.4,0.8,0.5,1.3,0.9c0.7,0.4,1.6,0.8,2.4,1.2c1.2,0.5,1.9,0.5,3.4,0.7c1.3,0.1,2.2,0.2,3.8,0.1    c0.7,0,1.5,0.1,2-0.1c0.8-0.2,1.4-0.7,2.2-1c0.7-0.3,1.6-0.4,2.2-0.7c1-0.4,1.8-1.3,2.7-1.8c0.4-0.2,0.8-0.2,1.1-0.4    c0.6-0.4,1.1-1.3,1.7-1.9c0.4-0.4,1-0.6,1.3-1c0.3-0.3,0.6-0.7,0.9-1.1c0.6-0.7,1-1.5,1.6-2.3c0.3-0.4,0.7-0.7,0.9-1    c0.8-1.3,1-3,1.7-4.4c0.5-0.9,1-1.6,1.3-2.5c-0.1-1,0.4-2,0.4-3.1c-0.1-1.6-0.7-3.7-1.2-5.5c-0.7-2.4-2.5-4.6-4-6.5    c-1-0.3-1.5-1.6-2.5-2.4c-0.2-0.2-0.6-0.3-0.9-0.5c-0.3-0.2-0.5-0.6-0.7-0.8c-0.9-0.6-2.3-1.1-3.5-1.6c-0.2-0.1-0.4-0.3-0.6-0.3    c-0.1,0-0.3,0.1-0.4,0.1c-0.1,0-0.1-0.2-0.2-0.2c-0.5-0.1-1,0-1.5,0.1c-1-0.5-2.1-0.5-3.4-0.6c-1.4-0.1-3,0.1-4.7,0.5    C121.5,19.7,120.6,19.7,119.8,19.9z M122.2,22.5c1.1-0.2,2.2-0.5,3.2-0.5c0.6,0,1.2,0.3,1.9,0.3c0.4,0,0.7,0,1,0    c0.3,0.1,0.6,0.3,0.9,0.4c1.3,0.4,2.7,0.4,3.8,0.8c0.6,0.2,1,0.8,1.6,1.1c0.7,0.4,1.6,0.3,2.2,0.6c0.4,0.2,0.7,0.6,1.1,1    c0.5,0.3,1,0.4,1.2,0.7c0.3,0.3,0.7,0.8,1.2,1.3c0.9,0.9,2,2.5,2.5,4c0.7,2.1,1.2,5.2,1,6.9c0,0.5,0,1-0.1,1.3    c-0.2,0.9-1,1.8-1.5,2.8c-0.2,0.5-0.5,1.1-0.7,1.6c-0.2,0.6-0.3,1.3-0.5,1.7c-0.2,0.5-0.9,1.2-1.2,1.6c-0.5,0.6-0.8,1.1-1.3,1.7    c-0.3,0.4-0.6,0.9-0.9,1.1c-0.4,0.4-1,0.6-1.4,1c-0.6,0.6-1.1,1.3-1.8,1.8c-1.1,0.8-2.4,1.6-3.7,2.2c-1.1,0.5-2.4,1.1-3.6,1.3    c-0.7,0.2-1.4,0.1-2.1,0.1c-1.5,0.1-2.3,0-3.5-0.2c-0.6-0.1-1.3-0.1-1.8-0.2c-1.7-0.5-3-1.5-4.6-2.6c-0.4-0.3-0.9-0.6-1.4-1    c-0.5-0.4-1.1-0.7-1.4-1c-0.8-0.8-1-1.9-2.3-2.3c-1.4,0.5-2.7,1.1-4.1,1.6c-1.6-0.1-2.7-4.1-4.4-3.9c-0.5,0.1-1.3,0.5-1.7,0.9    c-0.4,0.4-0.4,1.1-0.6,1.8c-0.2,0.7-0.5,1.3-0.6,1.8c-0.1,0.7,0.2,1.6-0.2,2.1c-0.3,0.4-0.9,0.3-1.3,0.4c-0.9-0.5-1.3-1.7-2.2-2.6    c-0.3-0.3-0.9-0.6-1.4-1c-0.6-0.5-0.9-0.9-1.4-0.8c-0.7,0.1-1.8,0.9-2.2,1.2c-0.3,0.3-0.6,0.7-1,1.1c-0.4,0.5-0.7,0.7-0.8,1.2    c-0.1,0.8,0.4,1.6,0.4,2.3c0,0.3-0.1,0.6-0.2,0.8c-0.1,0.2,0,0.7-0.3,0.8c-0.7,0.5-2,0.8-2.8,0.9c-0.8-0.7-1.4-1.8-2.2-2.6    c-0.3-0.3-0.8-0.5-1.3-0.8c-0.6-0.4-0.8-0.7-1.4-0.6c-1.3,0.1-3.8,1.9-4.3,2.6c-0.5,0.7-0.7,1.3-1,2c-0.5,1.1-1.1,1.5-2.8,2.2    c-0.7,0.3-1.4,0.6-2,0.8c-0.4,0.1-1,0.1-1.4,0.2c-0.7,0.2-1.5,0.6-2.2,0.9c-0.8,0.3-1.7,0.7-2.2,0.8c-0.5,0-0.6-0.2-0.9-0.4    c-0.3-0.1-0.6-0.2-0.9-0.4c-0.4-0.2-0.6-0.7-1-0.9c-1-0.5-1.8-1.2-2.7-1.9c-0.8-0.6-2-1.2-2.2-2.7c0.4-0.7,1-1.7,1.6-2.3    c0.5-0.5,1.4-0.8,2-1.3c0.5-0.4,0.7-1.1,1.1-1.4c0.2-0.2,0.7-0.3,1-0.5c1.4-0.8,3-1.3,4.8-1.9c5.9-1.9,11.4-4,17.2-5.7    c4.1-1.3,8.1-2.7,12-4c3.2-1.1,6.4-2.1,9.6-3.1c0.4-1.8,1.4-3.3,2.2-4.9c0.7-1.2,1.2-2.1,2.1-3.2c1-1.3,2.1-2.2,3.5-3.3    c0.8-0.6,1.7-1.3,2.4-1.7C118.1,23.4,120.1,23,122.2,22.5z"></path>
		<path d="M131.8,41.5c1.3,0.1,2.2-0.1,3.8-0.8c1.1-0.6,2-1,2.3-2.1c0.1-0.5,0.1-2,0-2.6c-0.3-1.2-1.6-2.7-2.5-3.6    c-1.2-1.2-2.9-2.3-5.1-1.4c-1.7,0.7-2.5,2.2-3,3.7c-0.2,0.6-0.5,1.4-0.4,2.1C127.3,39,129.9,41.4,131.8,41.5z M132,37.9    c-0.4-0.1-0.8-0.4-1.2-0.7c-0.4-0.2-1-0.4-1.2-0.7c-1.5-1.4-0.1-3.9,2-4.3c1.2-0.3,2.2,0.7,3.1,1.7c0.8,1,1.1,1.3,1.3,2.5    C135.1,37.6,133.3,37.5,132,37.9z"></path>
		<path d="M116.9,30.1c0.1,0.2,0,0.2,0.1,0.4c0.5,1.7,0.6,3.2,1.1,5.1c0.9,3.3,1.8,6.3,2.2,9.2c0.3,1.6,0.9,3.2,1.2,4.6    c0.1,0.9,0.2,1.9,0.5,2.8c-0.4,0.1-0.8,0.4-1.1,0.3c-0.7-1.1-0.7-2.5-1.1-3.8c-0.2-0.8-0.5-1.4-0.6-2c-0.3-1.3-0.6-2.1-0.9-3.3    c-0.6-3.2-1-5.9-2-9.2c-0.4-1.4-1.5-4-0.7-4.5C116.2,29.3,116.8,29.8,116.9,30.1z"></path>
		<path d="M112.7,34.8c0.7,2,1.4,4.9,2,6.9c0.5,1.9,1,3.1,1.3,5c0.2,0.9,0.4,2.2-0.2,2.5c-0.3,0.1-0.7-0.2-0.9-0.1    c-0.4-1.4-0.7-2.7-1-4.2c-0.1-0.6-0.2-1.3-0.4-1.8c-0.1-0.4-0.4-0.6-0.5-1c-0.5-1.4-0.5-2.4-0.8-3.7c-0.2-0.6-0.4-1.4-0.6-1.9    c-0.5-1.4-1.6-3.4,0.2-3.4C112.4,33.2,112.5,34.1,112.7,34.8z"></path>
		<path d="M72.2,51.7c0.4-0.1,0.9-0.1,1.3-0.2c1.2-0.4,2.6-0.9,4-1.4c1.3-0.5,2.7-0.7,4-1.1c0.7-0.2,1.3-0.6,2-0.8    c0.6-0.2,1.3-0.3,1.8-0.5c0.7-0.3,1.3-0.8,2.1-1c0.8-0.2,1.6-0.4,2.3-0.6c0.9-0.2,1.7-0.3,2.4-0.5c0.2-0.1,0.5-0.3,1-0.5    c2-0.8,4.5-1.2,7.1-2.1c1-0.3,2.4-0.7,3.5-1c1.3-0.2,2.6-1,3.1,0.1c-0.3,1.1-1.4,0.8-2.4,1.1c-1.8,0.4-3.4,1.3-5.1,1.7    c-0.7,0.2-1.4,0.1-2,0.2c-1.1,0.3-2.1,0.7-2.9,0.9c-0.7,0.2-1.3,0.6-2.1,0.8c-0.8,0.2-1.6,0.3-2.4,0.5c-0.4,0.1-0.8,0.3-1.2,0.4    c-0.4,0.1-1,0.2-1.3,0.3c-0.4,0.1-1,0.7-1.4,0.9c-0.6,0.2-1.8,0.3-2.4,0.5c-0.6,0.2-1,0.7-1.6,0.9c-0.3,0.1-0.7,0-1.1,0.1    c-0.6,0.2-1.2,0.6-1.8,0.8c-0.4,0.1-0.8,0.2-1.3,0.3c-0.5,0.1-1,0.2-1.5,0.4c-1,0.3-2,0.9-3,1.2c-1.4,0.4-2.9,0.7-4.1,1.2    c-0.6,0.2-1.2,0.7-1.7,0.9c-0.6,0.2-1.2,0.2-1.9,0.4c-0.8,0.3-3.3,1.7-3.6,0.7c-0.3-0.9,1.2-0.9,1.7-1.1c1.2-0.4,2.2-0.9,4-1.6    C69.4,53,70.9,52.1,72.2,51.7z"></path>
	</g>
	<polygon class="st1" points="160.5,98.1 159.9,89.7 158.9,97.9 158.5,114.3 157.5,138.1 157.4,142.6 157.1,150.5 155.2,156.9    150.9,159.8 146.3,160.3 147.3,153.4 147.3,147.9 147.3,138.1 147.5,132.5 147.8,121.7 152.1,119 154.3,114.5 154.9,109.8    155.4,105 155.5,100.8 153.9,105 153.3,110 152.3,116.4 147.9,118.2 148.4,103.7 148.8,96.3 153.1,98.1 148.9,95 149.1,90.2    149.1,86 153.9,84.6 158.4,90.2 158.9,94.4 158.9,86.7 154.7,83.3 150.4,82.3 147.5,88.3 146.8,103.7 145.9,130.4 145.7,136    145.7,143.4 145.7,147.6 145.7,152.1 145.3,157.9 142.9,162.2 135,163.5 131.1,159.3 131.6,152.9 132.5,144.2 133,136 133.9,123.8    134.4,109 134.8,98.7 135.2,87.3 136.3,82.5 141.3,80.1 145.5,81.7 147.5,86 147.5,81.5 143.3,78.8 139,78.5 134.8,81.7    133.7,86.5 133.4,91.2 133.2,98.1 132.9,104.2 132.7,109.8 132.5,116.9 128.3,116.4 125.2,109 125.5,104.7 126.1,100.5 127.9,96    133.3,95.2 128.5,93.9 124.7,99.2 123.9,104.7 123.6,109 124.1,114 129,118 130.8,144.7 129.9,153.4 129.5,159.3 117.2,161.9    110.2,162.2 81.5,162.4 82.1,156.9 81.5,147.9 86.4,145.2 89.6,140.7 94,138.6 99.9,140.5 104.6,139.1 109.8,137.6 114.1,134.9    115.3,128.8 114.8,123 114.1,118.8 113.9,131.2 110.1,135.7 104.8,137.6 99.9,138.9 95.7,138.6 98.6,133.6 98.1,129.1 97.1,124.4    97.1,133.6 92.8,137.6 88.1,128.8 88.1,139.9 85,144.2 80.6,134.1 80.6,159.3 79.4,163.5 74.8,166.1 67.7,166.7 64.8,162.2    64.6,152.1 64.1,127.8 63.6,102.4 63.5,94.4 63.5,87.8 64.2,83.6 68.7,80.9 73.4,81.2 76.7,91 77.3,101.8 77.6,106.3 77.7,111.6    78.2,121.2 78.8,128.3 79.8,146 80.6,155.8 80.6,134.1 80.5,129.9 79.9,124.6 84.1,121.7 87.6,134.9 88.1,139.9 88.1,128.8    85.7,120.9 80.8,120.1 79.4,115.6 84,112.9 88.3,111.9 92.7,113.5 94.1,118 95.8,125.4 96.8,130.4 97.1,124.4 96.1,120.1    100.3,117.7 105.1,116.4 109.3,116.5 111.6,120.9 111.3,116.5 113,120.9 113.6,125.4 113.9,131.2 113.9,118 108.3,114 95.6,117.7    92.9,111.4 88.1,110.3 83.5,111.6 79.3,112.9 79.1,106.3 78.3,94.2 78.2,88.9 77.8,84.6 82,84.6 86.6,84.4 93.4,84.1 98.3,84.1    104.9,83.6 109.8,83.6 134.3,83.3 133.6,79.1 123.7,82 130.6,79.1 131.9,74.3 131.1,68.5 130.4,73.8 126.1,71.9 125.3,77    122.1,81.5 108.6,82 100.9,82.5 95.1,82.5 89.4,82.8 82.3,83 86.5,80.1 86.9,75.9 91.2,71.9 96.1,71.7 109.6,71.4 121.5,71.1    125.4,75.9 125.4,71 121.2,69.5 113.3,69.5 100.6,69.8 95.7,70.1 90.9,70.3 86.7,71.7 85.3,78.3 81.3,72.7 82.8,68.5 81.4,74.4    85.9,68.5 90.6,66.9 95.7,66.6 117.8,66.4 125.1,66.6 129.5,68.5 130.4,73.8 130.4,67.2 126,65.3 120.9,65.1 112.1,64.8    107.1,65.1 94.6,65.1 90.5,65.3 86,65.8 81.7,67.7 79.8,75.6 78.4,79.9 74.2,79.9 68.5,79.3 64.2,80.9 63.3,163 57.3,162.7    52.6,161.4 48.8,157.1 47.7,147.9 47.7,141.8 47.7,126.4 47.7,112.2 48.3,100.5 48.8,96.3 50.1,92 54.2,87.8 58.4,86.5 61.9,92    62.1,101 62.6,126.2 57.7,127.5 53.3,129.1 51.2,133.3 52.5,138.6 54,143.4 55.4,147.6 58.3,152.4 62.7,152.4 63.3,163 63.3,82.1    63,150.5 58.7,150.8 56.2,145.5 54.8,141 53.3,136 52.8,131.7 57,129.1 61.2,128 63,149.2 58.6,148.1 63,150.3 63,82.5 58.8,84.6    53.1,86.5 48.6,91 47.2,95.7 46.6,100.2 46.1,109 46,122.2 46,138.6 46,146 46.1,151.6 46.8,156.1 48.6,160.3 53.5,163.5    58.4,164.3 63.6,164.5 73.2,168 77.6,166.7 82.9,164 93.1,163.8 100.7,164 114,163.8 127.8,163 132.1,164 136.8,165.3 141,164.8    145.4,161.9 149.7,161.6 154.6,159.8 157.7,155.6 158.6,151.3 158.8,147.1 159.1,139.1 160,118 160.4,99.5  "></polygon>
</g>
</svg>
