<?xml version="1.0" encoding="UTF-8"?>
<svg xmlns="http://www.w3.org/2000/svg" xmlns:xlink="http://www.w3.org/1999/xlink" version="1.1" id="Ebene_1" x="0px" y="0px" width="200px" height="200px" viewBox="0 0 200 200" style="enable-background:new 0 0 200 200;" xml:space="preserve">
<style type="text/css">
	.st0{fill:#FFD126;}
	.st1{fill:#1D1D1B;}
</style>
<circle class="st0" cx="100" cy="100" r="100"></circle>
<g>
	<path class="st1" d="M148.8,70.1c-0.9-0.5-6.4-0.4-9-0.3c-2,0-2.9,0.1-3.3,0l-0.4-0.1l0-0.4c0-1.1,0-2,0.1-2.8   c0.2-1.9,0.2-2.4-1.5-2.8h-38v2.8h36.7l0,0.5c-0.1,37.5-17.4,54.6-33.3,54.6c0,0,0,0,0,0c-16,0-33.2-17.1-33.3-54.6v-0.5h11v-2.8   H65.3c-1.6,0.4-1.6,1-1.5,2.8c0.1,0.7,0.1,1.7,0.1,2.8l0,0.3l-0.3,0.1c-0.6,0.3-2,0.2-4.2,0c-2.9-0.2-7.2-0.5-8.3,0.7   c-0.2,0.2-0.3,0.4-0.2,0.7c-0.7,7.9,4,28,13.7,37.6c4,3.9,8.4,5.7,12.9,5.2l0.3,0l0.2,0.2c2.5,2.9,5.6,5.5,8.9,7.1l0.2,0.1l0.1,0.2   c2.3,4.5,0.7,9.6-0.4,12.3l-0.1,0.3l-0.3,0c-9.3,1.3-14.3,3.5-14.4,6.6l0,0.4v11.6c0,6,18.4,7.6,28.2,7.6c9.7,0,28.2-1.6,28.2-7.6   l0-11.9c-0.1-3.1-5.3-5.4-14.9-6.7l-0.2,0l-0.1-0.2c-1.5-2-3.6-6.3-0.1-12.3l0.1-0.1l0.1-0.1c3.3-1.6,6.5-4.2,9-7.1l0.2-0.2l0.3,0   c5.2,0.6,10.1-1.7,14.6-7C145.8,97,150.8,78.1,148.8,70.1z M74.3,110.8C57.4,107,54.3,81,53.7,73.1l0-0.6h10.5l0,0.5   c0.7,8.7,3,25.1,10.7,36.9l0.7,1.1L74.3,110.8z M125.4,152.6l0,0.1c-0.9,2-10.3,4.8-25.4,4.8c-14.9,0-24.4-2.7-25.3-4.6l-0.1-0.2   v-8.2l0.7,0.3c13.4,5.1,36,5.1,49.4,0l0.7-0.3L125.4,152.6z M114.1,137l0.2-0.1l0.2,0c6.3,1,10,2.5,10.8,3.5l0.1,0.2l0,0.2   c-0.6,4.2-22,4.4-25.5,4.4c-0.1,0-0.2,0-0.2,0c-4.1,0-24.3-0.3-24.9-4.4l0-0.2l0.1-0.2c0.8-1.1,4.6-2.6,11-3.6l0.2,0l0.2,0.1   C91.9,141.5,106.7,141.5,114.1,137z M110.9,135.8l-0.6,0.3c-1.7,0.8-6.1,1.2-10.5,1.2c-4.7,0-9.4-0.5-10.7-1.4l-0.4-0.3l0.2-0.4   c1.1-2.3,2.7-6.8,1.7-11.5l-0.2-0.9l0.8,0.3c5.1,1.6,11.5,1.6,16.7,0.1l0.9-0.3l-0.3,0.9c-1.7,5.5,0.4,9.5,1.8,11.4L110.9,135.8z    M125.7,110.8l-1.3,0.3l0.7-1.1c7.7-11.8,10-28.2,10.7-36.9l0-0.5h10.6l0,0.6C145.8,81.1,142.7,107.2,125.7,110.8z"></path>
	<path class="st1" d="M88.6,52.9h-2.8V41.5h2.8V52.9z"></path>
	<rect x="85.8" y="59.4" class="st1" width="2.8" height="11.4"></rect>
	<path class="st1" d="M88.6,70.8h-2.8V59.4h2.8V70.8z"></path>
	<path class="st1" d="M81.4,57.5h-6.3v-2.8h6.3V57.5z"></path>
	<path class="st1" d="M99.3,57.5h-6.3v-2.8h6.3V57.5z"></path>
	<rect x="133.4" y="115.3" class="st1" width="2.8" height="8.8"></rect>
	<path class="st1" d="M133.4,115.3h2.8v8.8h-2.8V115.3z"></path>
	<rect x="133.4" y="129.4" class="st1" width="2.8" height="8.8"></rect>
	<path class="st1" d="M133.4,129.4h2.8v8.8h-2.8V129.4z"></path>
	<rect x="125.2" y="125.4" class="st1" width="4.8" height="2.8"></rect>
	<path class="st1" d="M125.2,125.4h4.8v2.8h-4.8V125.4z"></path>
	<rect x="139.4" y="125.4" class="st1" width="4.8" height="2.8"></rect>
	<path class="st1" d="M139.4,125.4h4.8v2.8h-4.8V125.4z"></path>
</g>
</svg>
