<?xml version="1.0" encoding="UTF-8"?>
<svg xmlns="http://www.w3.org/2000/svg" xmlns:xlink="http://www.w3.org/1999/xlink" version="1.1" id="Ebene_1" x="0px" y="0px" viewBox="0 0 300 300" style="enable-background:new 0 0 300 300;" xml:space="preserve">
<style type="text/css">
	.st0{fill:#FFD126;}
</style>
<path class="st0" d="M217.4,167.1c1.4,1.2,2.8,2.4,4.2,3.6c1.9,1.6,2.2,2.9,1,5.1c-2.8,4.8-7.2,7.2-12.4,8.7  c-0.8,0.2-1.6,0.5-2.4,0.6c-6.7,1.4-12.1,5-16.5,10c-7.4,8.5-16.4,14.9-25.9,20.7c-3.1,1.9-6.5,2.9-10,3.4c-2.3,0.3-4.3,1.1-6.4,2.1  c-5.2,2.6-10.3,2.7-15.7,0.4c-5-2.1-10.3-3.2-15.7-3.5c-6.2-0.4-12.5-1.4-18.7-1c-2.1,0.1-4.2,0.7-6.3,0.4c-6.6-1-12.5-3.9-17-8.8  c-2.8-3-6.2-4.5-9.9-5.5c-3.6-1-7.3-1.2-10.9-2.4c-3.9-1.3-7.5-3-8.7-7.4c-0.7-2.5-0.4-5,0.2-7.4c1.6-5.8,2.5-11.7,2.5-17.6  c0-3.4,0.7-6.4,2.6-9c2-2.8,4.6-5.1,7.6-6.8c4.8-2.7,9.7-5.3,14.5-8c7.1-4,13.4-9.2,19.5-14.6c3.8-3.4,7.6-6.6,11.3-10.1  c1.8-1.7,3.9-3.1,6-4.4c4.1-2.7,8.5-2.8,13.1-1.8c1.1,0.2,2,0.1,3-0.6c2.3-1.7,4.8-3.2,7.2-4.8c0.3-0.2,0.6-0.2,0.6-0.7  c0.7-4.4,3.3-7.7,5.7-11.2c2.4-3.4,5.7-5.2,9.8-5.7c1.4-0.2,2.9,0.5,4.4,0.1c-0.5-4.3-1.5-8.5-1.3-12.8c0-1.2,0.1-2.3,0.3-3.5  c0.2-1.1,0.7-2.2,1.8-2.7c4.1-1.7,8.1-3.5,12.1-5.4c6.6-3.3,13.8-4.3,21.2-4.4c17.1-0.2,32,5.5,45.3,16.1c3.6,2.9,6.5,6.5,9.3,10.2  c0.7,0.9,1.3,1.9,2.1,2.8c0.7,0.7,1.1,1.5,1.1,2.6c0.5,9.3,1.8,18.5,3.1,27.7c0.7,5.1,0.8,10.4,1.7,15.4c0.6,3.3-0.7,5-3,6.9  c-6,4.7-12.1,9.1-18.1,13.7C225.4,160.7,221.5,163.9,217.4,167.1z M206.3,143c-2.2-1.4-4.3-2.8-6.7-3.7c-6.3-2.3-12.6-4.7-19-6.8  c-17.8-5.6-35.7-11.1-53.9-15.5c-2.3-0.6-4.6-1.3-7.1-1.1c-5.3,0.2-9.6,2.8-13.4,6.2c-4.3,3.8-8.5,7.5-12.9,11.2  c-5.1,4.2-10,8.7-15.6,12.1c-5.6,3.4-11.4,6.6-17.2,9.8c-3,1.6-5.4,3.9-7.5,6.5c-0.4,0.5-0.8,1,0.3,1.4c5.4,2.1,10.8,4.1,16.3,5.8  c11.3,3.5,22.2,8.2,33.3,12.2c0.2,0.1,0.9,0.1,0.6,0.8c-2-0.6-4.1-1.1-6-1.8C82.7,175,68,169.9,53.3,164.7c-1.8-0.6-2-0.5-2.1,1.5  c-0.1,1.6-0.1,3.1-0.3,4.7c-0.1,0.9,0.2,1.3,1,1.6c4,1.5,7.9,3,11.9,4.5c0.5,0.2,1.2,0.2,1.3,1.1c-0.4,0-0.8,0.1-1.1,0  c-3.6-0.7-7.1-1.7-10.6-2.7c-2.8-0.8-2.8-0.8-3.2,2.1c-0.2,1,0.1,1.3,1,1.7c2.1,0.8,4.2,1.7,6.1,2.7c0.3,0.2,0.7,0.2,0.6,0.7  c-0.2,0.5-0.5,0.2-0.8,0.1c-2.2-0.5-4.4-1-6.5-1.5c-0.7-0.2-1.1,0-1.2,0.7c-0.1,1.1-0.2,2.2-0.5,3.3c-0.3,0.9,0.1,1.2,0.9,1.4  c3.8,1.2,7.5,2.5,11.1,4.2c0.7,0.3,2.1,0.4,1.8,1.2c-0.2,0.7-1.5,0.3-2.4,0.1c-3.8-0.6-7.4-1.9-11-3.1c-0.9-0.3-1.1-0.2-1.3,0.8  c-0.5,2.7,0.7,4.7,2.7,6.4c2.7,2.2,6,2.9,9.2,3.4c4.2,0.7,8.3,1.6,12.3,3.2c1.3,0.6,2.5,1.3,3.4,2.4c4,4.9,9.3,7.5,15.2,9.2  c1.2,0.3,2.5,0.6,3.8,0.4c7.1-1.1,14.3-0.9,21.4-0.2c6.8,0.7,13.5,1.9,19.6,5.1c2.5,1.3,5.2,1.4,7.9,1c0.7-0.1,1-0.4,0.9-1.2  c-0.1-1.4-0.2-2.7-0.1-4.1c0.1-1.1-0.4-1.5-1.4-1.7c-2-0.5-3.9-1.2-5.8-2c-0.3-0.1-0.7-0.2-0.6-0.7c0.2-0.4,0.5,0,0.7,0  c1.2,0.2,2.5,0.5,3.7,0.7c3.3,0.7,3.3,0.7,3.2-2.6c0-1-0.5-1.4-1.3-1.6c-1.7-0.6-3.5-1.2-5.2-1.8c-0.5-0.2-1.3-0.2-1.5-1.1  c2.7,0.3,5.1,1.1,7.6,1.7c0.1-1.3-0.2-2.5-0.2-3.7c0-0.8-0.4-1.1-1.1-1.2c-3-0.6-5.9-1.4-8.8-2.4c-0.4-0.1-1.1,0-1.2-0.8  c0.5-0.3,1-0.1,1.4-0.1c2.5,0.4,5.1,0.8,7.6,1.3c2,0.4,2,0.4,1.8-1.6c-0.1-0.9-0.1-1.8-0.4-2.6c-0.4-1.2-1.7-0.3-2.4-0.7  c-0.1,0-0.2-0.1-0.3-0.1c-8.7-2.2-17.3-4.9-25.7-8.2c-0.5-0.2-1.6-0.3-1.3-1c0.2-0.8,1.1-0.2,1.6-0.1c0.3,0.1,0.7,0.2,1,0.3  c8,2.9,16.1,5.4,24.4,7.2c1.9,0.4,3.7,0.7,5.1-1.1c1-1.2,2.3-2.1,3.5-3.1c5-4.4,10.5-8.4,15.6-12.6c10.1-8.3,20.1-16.7,30.6-24.5  C198.8,148.5,202.5,145.8,206.3,143z M240.5,118.7c0-0.3,0-0.5,0-0.7c-0.7-7.7-1.4-15.5-2.1-23.2c0-0.5-0.3-0.9-0.6-1.3  c-8.5-10.6-19.1-18.3-32-22.7c-5.4-1.8-10.9-2.7-16.6-3.3c-4.7-0.5-9.3-0.7-13.9-0.1c-6.4,0.9-12.6,2.6-18.3,5.9  c-1.4,0.8-2.1,1.8-2.3,3.2c-0.1,0.5-0.1,1.1-0.1,1.6c-0.2,4.1,0.5,8.2,1.2,12.2c0.3,1.7,1.5,0.7,2.3,0.9c1,0.3,0.7-0.6,0.7-1.1  c0.1-1.4-0.3-2.8,0.3-4.2c0.7,1.5,1,3,1.2,4.6c0.1,1.4,1.3,1.3,2,1.2c0.9-0.1,0.1-0.9,0.3-1.4c0.1-0.3-0.1-0.8-0.1-1.1  c-0.2-1.4-0.2-2.7,0.1-4.1c0.8,1.7,1.2,3.6,1.6,5.4c0.4,1.8,0.6,2,2.6,1.9c-0.1-0.9-0.2-1.8-0.2-2.8c0-0.9-0.3-1.8,0.1-3.1  c0.8,1.7,1,3.1,1.3,4.6c0.5,2.3,0.5,2.3,3,2.8c-0.3-2.3-0.6-4.6-0.8-6.8c-0.2-2.3-0.6-4.6-0.4-7c0.6,0.3,0.7,0.7,0.8,1  c0.7,4.3,1.4,8.6,2.1,13c0.1,0.6,0.4,0.8,0.9,1c3.2,1.3,6.4,2.9,9.5,4.5c1.6,0.8,2.1,2,1.4,3.7c-0.5,1.1-1,2.2-1.7,3.2  c-0.2,0.2-0.5,0.8-0.2,0.8c1.2,0,2.5,0.9,3.5,0.3c2.6-1.7,5.4-2.8,8.2-4.1c1.1-0.5,2.2-0.8,3.4-0.7c2.5,0.3,5,0.6,7.3,1.4  c3.2,1,6.4,2,9.6,3.1c0-1.3,0-2.5,0-3.7c0-0.3,0-0.8,0.4-0.8c0.5,0,0.4,0.4,0.5,0.8c0.2,1.2,0.4,2.4,0.6,3.6  c0.1,0.4,0.1,0.7,0.5,0.9c1.3,0.6,2.5,1.1,3.9,1.7c0.1-2-0.2-3.9,0.3-5.7c0.4,1.7,0.7,3.4,0.7,5.1c0.1,1.5,0.9,1.9,2.2,2.2  c0-2.4-0.2-4.6,0.2-7c0.6,0.4,0.6,0.9,0.6,1.3c0,1.8,0.5,3.5,0.6,5.2c0,1.6,0.8,2.1,2.1,2.5c0.1-1.1,0-2.1,0.6-3.1  c0.4,0.7,0.5,1.3,0.6,1.9c0.1,1.5,0.4,2.9,2,3.5c0.6,0.2,1,0.8,1,1.5c0,0.3,0,0.6,0.4,0.5c0.5-0.1,0.2-0.4,0.2-0.7  c-0.2-1.7-0.4-3.5-0.5-5.2c-0.3-4.6-0.4-9.3-0.2-13.9c0-0.4,0.1-0.8,0.4-0.8c0.3,0,0.4,0.4,0.5,0.8c0.3,2.9,0.6,5.7,0.9,8.6  c0.4,3.7,0.8,7.4,1.1,11.1c0.1,1.2,1.1,0.7,1.7,0.8c0.9,0.1,0.4-0.6,0.4-1c-0.1-2.4-0.4-4.8-0.1-7.2c0-0.3-0.2-0.8,0.3-0.9  c0.5-0.1,0.5,0.4,0.6,0.8c0.4,2.3,0.9,4.5,1.1,6.8C238.4,118.4,239,119,240.5,118.7z M200,160.8c-0.1-0.7,0.3-0.8,0.6-1  c2.8-2.1,5.7-4,8.1-6.5c2.7-2.8,3.5-2.9,0.5-7.1c-0.8-1.1-1.4-1-2.4-0.4c-3.3,2.2-6.5,4.5-9.7,6.9c-11.7,8.8-22.9,18-34.5,27  c-5.6,4.3-11.1,8.7-16.7,13c-0.6,0.5-1.2,0.8-1,1.8c0.4,1.5,0.5,3,0.6,4.7c2.3-1.3,4.4-2.5,6.6-3.8c0.2,1-0.4,1.3-0.8,1.7  c-1.6,1.6-3.5,3-5.3,4.4c-0.5,0.4-0.7,3.1-0.3,3.5c0.3,0.3,0.5,0,0.8-0.1c0.9-0.4,1.8-0.8,2.7-1.1c0.4-0.1,0.9-0.4,1.2,0.1  c0.2,0.4-0.1,0.7-0.3,1c-0.6,0.9-1.4,1.8-2.3,2.2c-1.7,0.7-1.7,1.9-1.6,3.4c0.1,0.9,0.3,1,1,0.5c2.3-1.4,4.7-2.7,7.1-4.1  c0.3-0.2,0.7-0.6,1-0.2c0.3,0.4-0.2,0.7-0.4,0.9c-2.1,2.7-4.9,4.5-7.7,6.3c-0.6,0.4-0.9,0.7-0.8,1.5c0.1,1.3,0,2.7,0,4.4  c3.8-2.4,8-2.8,12.1-3.8c0.7-0.2,1.3-0.4,1.9-0.7c4-1.9,7.7-4.3,11.5-6.7c7.1-4.5,13-10.3,18.7-16.4c4.1-4.4,8.8-7.9,14.9-9.2  c1.4-0.3,2.9-0.7,4.3-1c4.2-1,7.9-2.8,10.2-6.8c0.6-1.1,0.9-1.8-0.3-2.7c-0.9-0.6-1.6-1.6-2.5-2.3c-1.8-1.5-2.9-3.4-3.2-5.8  c0-0.3-0.1-0.6-0.4-0.8c-2,1.6-4,3.2-6.3,4.5c-0.2,0.1-0.6,0.6-0.9,0.2c-0.4-0.4,0.1-0.7,0.4-0.9c1.7-1.6,3.4-3.3,5-4.9  c1.7-1.7,1.7-2.4,0.7-4.6c-1.1,0.9-2.2,1.8-3.4,2.5c-1.1,0.7-2.2,1.7-3.7,1.8c1.7-1.5,3.5-2.9,5.2-4.4c1.9-1.7,2.1-2.8,0.7-5.1  C207.9,155.6,204.2,158.5,200,160.8z M216.5,165.4c4.2-3.6,8.2-7,12.5-10.2c5.7-4.3,11.7-8.4,17-13.3c0.6-0.6,1.4-1.2,2.2-1.4  c0.9-0.3,0.9-0.8,0.8-1.6c-0.7-4.2-1.2-8.4-1.7-12.6c-0.2-2.1-0.5-4.2-0.8-6.3c-2.2,0.7-3.6,2.3-5.4,3.3c-3.4,1.9-6.8,3.8-10.1,5.9  c-0.8,0.5-1.1,0.8-0.6,1.8c0.6,1.3,1,2.7,1.2,4c0.2,1.4,0.7,2.8-0.1,4.3c-0.5-0.3-0.6-0.8-0.7-1.2c-0.7-2-1.4-4-2.2-6  c-0.1-0.3-0.1-1-0.7-0.6c-0.8,0.4-1.6,0.9-2.1,1.6c-0.3,0.4,0.3,1,0.4,1.6c0.2,0.8,0.5,1.6,0.7,2.4c0.2,0.9,0.4,1.9-0.1,2.9  c-0.8-1-1.2-2.2-1.7-3.2c-1.3-2.4-1.2-2.4-3.4-1c-0.9,0.5-1,0.9-0.6,1.9c0.9,2.3,1.5,4.6,1.6,7.1c0,0.4,0.1,1.1-0.4,1.2  c-0.6,0.1-0.5-0.6-0.6-0.9c-0.7-2.2-1.6-4.3-2.5-6.4c-0.3-0.6-0.5-0.8-1.1-0.4c-2.3,1.6-4.7,3.2-7.1,4.7c-0.9,0.6-0.8,1-0.1,1.6  c1.4,1.3,2.5,2.9,2.9,4.8c0.4,1.8,0.7,3.6,1.1,5.5C215.2,158.3,215.5,161.8,216.5,165.4z M181.5,100.9c-4.9-3.2-10.2-5.4-15.9-6.8  c-3.8-1-7.8-1.1-11.7-1.7c-4.1-0.5-7.8,0.5-10.9,3c-4,3.2-6.2,7.7-7.9,12.4c-0.1,0.4-0.2,0.8,0.2,1.2c1.7,1.3,3.4,2.4,5.4,3.1  c0.6-3,1.5-5.8,3.4-8.2c0.2-0.3,0.4-1,0.9-0.7c0.6,0.3-0.1,0.7-0.2,1.1c-0.8,1.8-1.5,3.6-2,5.5c-0.8,2.9-0.6,3.3,2.2,4.5  c0.9,0.4,1,0,1.1-0.6c0.5-2.7,1.7-5.1,3-7.4c0.4-0.7,0.8-1.4,1.6-1.8c0.3,0.6-0.2,1-0.4,1.4c-1.1,2.3-2.2,4.5-2.7,7  c-0.5,2.6-0.5,2.6,2.1,3.3c0,0,0.1,0,0.1,0c0.5,0.1,0.7,0.1,0.9-0.6c0.7-2.7,2.2-5.1,3.8-7.3c0.2-0.3,0.5-0.9,1-0.7  c0.6,0.3,0,0.8-0.1,1.1c-0.9,2.4-2.1,4.6-2.7,7.1c-0.1,0.5-0.4,0.9,0.4,1.1c3.3,0.5,6.5,1.4,9.8,1.4c0.7,0,1.1-0.2,1.4-0.9  C168.3,110,173.6,104.2,181.5,100.9z M181.3,122.2c1.9-5.2,6.1-10.9,8.5-11.2c-0.6,0.9-1.2,1.6-1.7,2.4c-1.8,2.8-3.8,5.6-4.4,9  c-0.2,0.9,0.2,1.2,0.9,1.5c0.8,0.4,0.7-0.5,0.9-0.8c1.2-2.1,2.4-4.2,4.4-5.8c0.3-0.3,0.6-0.6,1.1-0.1c-0.3,0.4-0.5,0.9-0.8,1.3  c-1,1.9-2.1,3.7-2.7,5.8c-0.3,1,0.2,1.2,0.9,1.4c0.6,0.3,1.1,0.5,1.6-0.4c0.9-1.8,2.2-3.4,3.8-4.8c0.3-0.3,0.7-0.8,1.1-0.5  c0.6,0.4-0.2,0.7-0.3,1.1c-0.9,1.6-1.7,3.3-2.7,4.9c-0.5,0.9-0.3,1.2,0.6,1.5c4.4,1.8,8.9,3.4,13.5,4.9c0.7,0.2,0.9,0.1,1.2-0.5  c4.6-7.8,11.5-12.6,20-15.2c0.2-0.1,0.5-0.1,0.5-0.5c-0.7-0.5-1.3-1.1-2.1-1.4c-0.8-0.4-1.5-0.9-2.2-1.3c-7.9-4.7-16.5-7.1-25.5-8.3  c-1-0.1-2.1-0.3-3.2,0.1c-5.5,2.1-9.8,5.8-13.7,10c-0.6,0.7-1.1,1.4-1.4,2.2C178.2,120.3,178.5,120.9,181.3,122.2z M127.3,114.7  c4.7,1.2,9,2.2,13.4,3.3c9.7,2.5,19.2,6,28.9,8.5c10.6,2.8,20.8,7,31.2,10.6c2.7,0.9,5,2.5,7.4,3.9c0.7,0.4,1,0.4,1.6,0  c6.8-4.6,13.6-9.1,20.4-13.6c3.3-2.2,6.7-4.3,10.1-6.6c-2.7-0.4-5.3-0.4-7.9-1.1c-1.1-0.3-1.8-0.3-2.2,1c-0.2,0.8-0.8,1.5-1.4,2.1  c-5,4.9-10.4,9.2-16.9,12c-1.8,0.8-3.6,1.1-5.5,0.3c-1.7-0.8-3.5-1.5-5.3-2.1c-5.1-1.6-10-3.5-14.8-5.9c-2.9-1.5-6-2.6-8.7-4.5  c-0.6-0.4-1.2-0.8-1.1-1.6c0.2-3.3,1.1-6.2,3.8-8.4c1.1-0.8,2.1-1.8,3.2-2.7c-2.6-0.4-2.6-0.4-4.1,1.3c-0.2,0.2-0.4,0.4-0.6,0.6  c-2.6,2.7-5.7,4.8-8.7,7c-2,1.4-3.8,2.6-6.7,1.9c-4.1-1-8.5-1.2-12.6-2.7c-5.6-2-11.4-3.7-16.2-7.4c-0.5-0.4-0.7-0.1-1,0.1  C131.5,111.7,129.5,113,127.3,114.7z M172.4,66.1c2.9,0.2,5.3-0.4,7.7-0.5c8.8-0.5,17.3,0.8,25.6,3.8c12.6,4.5,24,11,32.4,21.8  c1,1.3,1.8,1.6,3.3,0.9c1.1-0.5,1-0.8,0.5-1.6c-1.8-2.6-3.7-5-6-7.2c-12.4-12.1-27.4-18-44.4-19.2C185.1,63.6,178.9,64.2,172.4,66.1  z M243.1,120.1c0.5-0.3,0.7-0.6,1-0.7c1.8-0.7,2-1.9,1.8-3.7c-0.6-4.1-0.9-8.2-1.3-12.4c-0.3-3.1-0.5-6.2-1.1-9.3  c-0.1-0.3,0-0.8-0.2-0.7c-0.8,0.2-1.7,0.5-2.4,0.9c-0.6,0.3-0.2,0.9-0.2,1.3c0.4,3.7,0.8,7.5,1.1,11.2  C242.1,111.1,242.5,115.5,243.1,120.1z M228.4,119.1c-8,2.3-14.4,6.7-18.8,13.9C217.3,130.4,223.3,125.4,228.4,119.1z M167,118.1  c6.8-3.8,12.4-8.6,15.9-15.9C175.5,105.6,169.3,109.9,167,118.1z"></path>
</svg>
