<?xml version="1.0" encoding="UTF-8"?>
<svg xmlns="http://www.w3.org/2000/svg" xmlns:xlink="http://www.w3.org/1999/xlink" version="1.1" id="Ebene_1" x="0px" y="0px" width="200px" height="200px" viewBox="0 0 200 200" style="enable-background:new 0 0 200 200;" xml:space="preserve">
<style type="text/css">
	.st0{fill:#FFD126;}
</style>
<circle class="st0" cx="100" cy="100" r="100"></circle>
<g>
	<path d="M77.3,80.7L77.3,80.7L77.3,80.7z"></path>
	<path d="M59.3,80.7C59.3,80.7,59.3,80.7,59.3,80.7C59.3,80.7,59.3,80.7,59.3,80.7z"></path>
	<path d="M79.8,139.9c6.1,0.9,12.9-0.1,17.5-4.6c2.6,2.1,5.8,3.3,9,4.1c-3.9,0.8-9.9-1.5-12.8,0.9c2.9,3.9,13.6,0.5,18.7,1.5   c-0.1,0-0.1,0-0.1,0c0.1,0,0.3,0,0.4,0l0,0h0.1c2.2-0.1,4.4-0.1,6.6-0.1c-0.1,0-0.1,0-0.1,0c2.7-0.1,5.4,0,8.1-0.1   c-0.1,0-0.1,0-0.1,0l0,0c3.6-0.1,7.3-0.2,10.9-0.3c-0.1,0-0.1,0-0.1,0c4.5-1,11.7,1.9,14.8-1.1c-5.3-3.6-15.4-0.5-22.3-1.3   c7.3-1.9,13.1-7.7,15.9-14.5c4.8-1.4,9.5-4.1,12.3-8.2c0,0,0,0.1-0.1,0.1c6.4-7.5,4.1-24.1-8.3-21.5c-0.5-2.1,0.5-7.1-2.4-7.2   c-20.3,0.5-44.1-3.3-63.1,1.3c-1.8,3.5-0.7,8.5-0.8,12.5c-0.9-0.2-1.9-0.1-2.8,0.3c-0.1-3.1-2.7-5.3-5.3-6.6l0,0   c0.1,0,0.1,0.1,0.1,0.1c-0.1,0-0.1-0.1-0.1-0.1c0.1-1.9-0.1-3.9-1-5.5c12.9-29.4-18.4-26.5-19.2-15.4   c-15.9-2.8-22.2,20.9-13.9,31.4c-11.1,14.9,14.5,40.3,29.7,31.1C73.7,138.6,76.8,139.5,79.8,139.9z M92.1,110.7   c-1.3-1.9-2.3-3.9-3.5-5.9c14.9-9.3,23.6,0.1,15.5,15c0,0,0-0.1,0.1-0.1c0,0.1-0.1,0.1-0.1,0.1c0,0,0,0,0-0.1   c-0.8,1.7-1.9,3.2-3.5,4.1C98.5,119.1,94.8,115.1,92.1,110.7z M151.1,96.6L151.1,96.6L151.1,96.6c0,0.1-0.1,0.1-0.1,0.2l0,0   c0,0.1-0.1,0.1-0.1,0.1l0,0c-0.1,0.1-0.1,0.1-0.2,0.2l0,0c-0.1,0-0.1,0.1-0.1,0.1l0,0c0,0,0,0-0.1,0   C150.8,97.1,151,96.9,151.1,96.6z M149.5,113c0.8-5.2,1.1-10.5,0.8-15.7c10.3-2.4,11.3,11.6,6.3,17.5l0,0c-2.3,3.1-5.5,5.3-9.1,6.6   C148.4,118.7,149.1,115.9,149.5,113z M89.5,89.9c18.7-0.7,37.5,0,56.3,0h-0.1c0.5,0,0.9,0.1,1.4,0c2.2,16.5,1.3,41.5-17.9,46.9   c0.1,0,0.1,0,0.1-0.1c-3.1,0.7-6.4,1.2-9.6,1.5c0.1,0,0.1,0,0.1,0c-7.1,0.6-14.9-0.7-20.8-4.7c1.7-2,2.5-4.6,2.1-7.2   c16.3-13.2,7.8-38.3-14.2-23.4c-0.2-0.2-0.4-0.3-0.7-0.5c0.1-0.3-0.1-0.7-0.2-0.9c0.1,0.1,0.1,0.1,0.1,0.2l0,0l0,0l0,0   c0.1,0.1,0.1,0.2,0.1,0.3l0,0l0,0c-0.3-4-0.2-8,0.1-12C87.5,90,88.5,89.9,89.5,89.9z M72.8,70.1c-0.1,0-0.1-0.1-0.1-0.1l0,0   c-0.1,0-0.1-0.1-0.1-0.1C72.7,70,72.7,70.1,72.8,70.1z M58,73.4c0.5-3.4,4.9-3.3,7.5-3.9c12.2-3.5,10.5,10.7,7.4,18   C68.3,82.7,59,80.8,58,73.4z M41.1,98.7c-1.2-7.3-0.3-16.9,6.9-20.8c0,0,0,0-0.1,0c0.1,0,0.1-0.1,0.1-0.1c0,0-0.1,0-0.1,0.1   c2.6-1.3,5.9-2.2,8.5-0.7c3.5,7.7,16.9,8.5,16.9,17.6c-7.6,3.3-16.1,4.5-23.8,7.9C45.3,105.3,41.5,104.1,41.1,98.7z M53.7,103.9   L53.7,103.9L53.7,103.9z M44.3,104.3L44.3,104.3L44.3,104.3z M69.9,134.7c-13,7.2-35.9-15.1-25.9-27.8c0,0,0,0-0.1,0   c0.1-0.1,0.1-0.1,0.1-0.1c3.3,0,6.3-1.9,9.5-2.9c-0.1,0-0.1,0.1-0.1,0.1c6.8-3,14.3-3.7,21-6.8c0.1,0.1,0.3,0.1,0.4,0.2l0,0   c0.1,0,0.1,0.1,0.1,0.1c0,0-0.1,0-0.1-0.1C84.1,100.7,72.3,127.4,69.9,134.7z M73.4,135.1c-0.2-0.1-0.3-0.3-0.5-0.4   c3.3-9.9,6-20,8.1-30.2c6.3-2.4,7.7,7.1,11.2,10.6c2.7,4.6,8.6,9.7,6.1,15.5c0,0,0,0,0-0.1C93.4,138.7,81.1,139.7,73.4,135.1z"></path>
	<path d="M45.3,94.3c0.7,0,1.2-0.6,1.2-1.3c-0.1-4.5,1.7-9.2,5.1-12.1c1.3-0.6,0.5-2.7-0.9-2.3C46.9,81.3,41.7,90.4,45.3,94.3z"></path>
	<path d="M45.9,97.7c-1.5,0-1.5,2.5,0,2.5C47.5,100.2,47.5,97.7,45.9,97.7z"></path>
	<path d="M105.7,66.5c8.5-14.2-5.6-3-2.2,4.5c1,3.2,4,7.5,0.1,10l0,0c-1.9,1.1,0.3,3.5,1.7,1.8C111.5,78.3,104.5,72.1,105.7,66.5z"></path>
	<path d="M117.1,69.4c-5.2,8.9,2.5,5.3,2.6-1.1c0.2-4.9-6-9.1-0.6-12.9c-0.1-2.2-2.7-1.3-3.4,0.1C111.3,60.1,118.3,64.5,117.1,69.4z   "></path>
	<path d="M125.5,65.8c-0.3-2.5,8.5-7.7,3-7.7c-7.7,4.7-5.7,12.6-2.3,19.3c0.2,1.6-1.5,2.4-1.7,3.7c1.3,3.5,4.3-1.5,4.1-3.4   C128.8,73.4,123.9,70.3,125.5,65.8z"></path>
	<path d="M84.9,70.7c-0.1-1.4-2.1-1.5-2.4-0.1c0.5,2.1,1.3,5.7,3.3,6.6C88.7,76.2,85.1,72.5,84.9,70.7z"></path>
	<path d="M90.1,75.6c2,0.2,2.3-8,0.2-7.8C88.5,67.9,88.3,75.4,90.1,75.6z"></path>
</g>
</svg>
