<?xml version="1.0" encoding="UTF-8"?>
<svg xmlns="http://www.w3.org/2000/svg" xmlns:xlink="http://www.w3.org/1999/xlink" version="1.1" id="Ebene_1" x="0px" y="0px" width="200px" height="200px" viewBox="0 0 200 200" style="enable-background:new 0 0 200 200;" xml:space="preserve">
<style type="text/css">
	.st0{fill:#FFD126;}
</style>
<circle class="st0" cx="100" cy="100" r="100"></circle>
<g>
	<g>
		<path d="M171.3,66.1c-0.5-0.5-1.3-0.7-1.9-0.9c-0.7-0.2-1.3-0.3-1.9-0.3c-1.4,0.1-2.7,0.6-4.1,1c-3.4,0.9-6.5,2.5-9.4,4.6    c-1.5,1.1-3,2.1-4.5,3.1s-3,2.1-4.6,3.1c-6.4,3.9-13.1,7.3-19.2,11.8c-0.5,0.4-1,0.8-1.5,1.2c-0.2,0.2-0.7,0.3-0.9,0.5    c-0.9,0.5-1.6,1.1-1.6,2.2c0,0.3,0.2,0.7,0.5,0.8c0.1,0.7,0.1,1.3,0.2,2.1c0,0.1,0,0.1,0,0.1c-0.7,0.6-1.4,1.3-2.1,1.9    c-0.7,0.6-1.5,1.1-2.3,1.6c-0.5-0.1-1.1-0.1-1.7-0.3c-0.9-0.1-1.8-0.3-2.7-0.5c-3.7-0.6-7.3-0.5-11.1-0.1s-7.5,0.5-11.1,1.1    c-1.9,0.3-3.7,0.7-5.5,1.1c-1.8,0.5-3.7,0.9-5.5,1.4c-3.5,1-6.9,2.5-10.1,4.3c-1.7,0.9-3.3,1.9-5,2.9c-1.6,1-3.3,1.9-4.9,2.8    c-3.3,1.8-6.5,3.8-9.5,5.9c-0.7,0.5-1.5,1.1-2.2,1.6c-0.7,0.5-1.5,1-2.3,1.6c-1.4,1.1-2.4,2.5-3.6,3.8c-2.1,2.3-4.9,4.6-4.9,7.9    c0,0.7,0.1,1.3,0.2,2.1c0.2,0.7,0.3,1.5,0.6,2.2c0.1,0.2,0.2,0.4,0.3,0.6c0,0.1,0,0.1,0,0.1c0.1,0.7,0.4,1.3,0.9,1.7    c0.3,0.3,0.5,0.5,0.8,0.7c0.3,0.3,0.6,0.7,0.9,1c0.6,0.5,1.2,1,1.9,1.5c0.7,0.5,1.2,1.1,1.9,1.7c1.1,1.1,2.6,1.6,4,2.1    c1.5,0.5,3,1.2,4.6,1.5c1.7,0.4,3.5,0.6,5.2,0.9c1.7,0.3,3.5,0.5,5.2,0.5c3.7,0.1,7.3-0.5,10.9-1c1.8-0.3,3.6-0.3,5.4-0.6    c2-0.3,3.9-0.9,5.8-1.4c3.7-1.1,7.5-1.9,10.9-3.7c1.7-0.9,3.3-2,4.9-3.1c1.6-1,3.2-2.1,4.7-3.2c2.9-2.1,5.9-4.2,8.5-6.9    c0.7-0.8,1.5-1.7,2.1-2.5c0.7-0.9,1.5-1.8,2.1-2.9c0.3-0.5,0.5-1.1,0.7-1.7c0.1-0.4,0.2-0.8,0.4-1.2c0.1-0.1,0.1-0.2,0.1-0.3    c0.4-0.5,0.8-1,1.2-1.5c1-1.4,2-2.8,2.7-4.4c0.7-1.6,1.1-3.1,1.5-4.8c0.2-0.9,0.3-1.8,0.3-2.7c0.1-0.2,0.1-0.5-0.1-0.7    c0-0.1,0-0.1-0.1-0.2c0.1-0.5,0.5-1,0.7-1.4c0.5-0.9,1.1-1.7,1.7-2.5c0.8-1.1,1.5-2.1,2.3-3.1c0.4-0.5,0.9-1,1.2-1.5    c0.1-0.2,0.3-0.4,0.5-0.7s0.3-0.6,0.5-0.8c0.1,0,0.1-0.1,0.2-0.1c0.1,0.2,0.2,0.4,0.3,0.6c0.3,0.5,0.5,0.9,1,1.2    c0.7,0.3,1.4-0.1,2.1-0.4c0.7-0.4,1.3-0.9,2-1.3c0.8-0.5,1.6-0.7,2.4-1.1c1.7-0.9,3.3-1.9,4.9-2.9c0.7-0.5,1.5-0.8,2.3-1.2    c0.8-0.5,1.7-1,2.5-1.5c0.7-0.4,1.5-0.8,2.2-1.2c0.8-0.5,1.5-1.1,2.3-1.7c1.5-1.1,2.9-2.3,4.3-3.3c1.4-1,2.7-2.2,4.1-3.2    c1.3-0.9,2.5-1.7,3.8-2.7c1.1-0.9,2.1-2,3-3.2c0.9-1.2,1.5-2.5,1.7-4C172.8,69.1,172.5,67.1,171.3,66.1z M123.3,93.3    c0.3,0,0.5-0.2,0.7-0.4c0.2,0.1,0.5,0.3,0.7,0.4c-0.4,0.5-0.8,0.9-1.3,1.2C123.3,94.2,123.3,93.8,123.3,93.3z M107.1,132.7    c-3.1,2.3-6.3,4.4-9.6,6.4c-1.5,0.9-3.2,1.8-4.9,2.4c-1.8,0.6-3.7,1.1-5.5,1.5c-1.9,0.5-3.8,1.1-5.7,1.5c-1.7,0.4-3.5,0.5-5.3,0.7    c-3.7,0.4-7.2,1.1-10.9,1.3c-1.7,0.1-3.4,0-5-0.2c-1.7-0.2-3.5-0.5-5.3-0.7c-1.6-0.3-3.1-0.9-4.7-1.3c-1.4-0.4-2.8-0.9-3.9-1.9    c-0.9-0.7-1.7-1.4-2.6-2.1c2.7,1.6,5.5,2.3,8.5,3c1.7,0.4,3.5,0.4,5.3,0.3c1.7-0.1,3.5-0.2,5.3-0.4c0.8-0.1,1.6-0.3,2.4-0.4    c0.9-0.1,1.9-0.2,2.7-0.3c1.8-0.2,3.5-0.7,5.3-1.1c3.5-0.9,7.1-1.7,10.6-2.8c1.8-0.5,3.6-0.9,5.4-1.3c1.9-0.5,3.7-1.1,5.5-1.7    c1.7-0.6,3.5-1.2,5.2-1.9c1.8-0.7,3.5-1.5,5.2-2.4c1.7-0.8,3.2-1.7,4.9-2.5c1.5-0.7,2.9-1.3,4.3-2.1c-0.9,1.1-1.9,2.1-2.9,2.9    C110,130.7,108.5,131.7,107.1,132.7z M123.9,107.5c0.1,0.7,0,1.4-0.2,2.1c-0.2,0.8-0.3,1.5-0.6,2.3c-0.6,1.5-1.2,3-2.1,4.4    c-1.9,2.8-4.1,5.3-6.9,7.4c-1.3,1-2.9,1.7-4.3,2.3c-1.7,0.7-3.3,1.6-4.9,2.4c-3.3,1.7-6.8,3.2-10.3,4.5c-1.7,0.6-3.5,1.3-5.3,1.8    c-1.8,0.5-3.6,0.9-5.4,1.3c-0.9,0.2-1.8,0.5-2.7,0.8s-1.7,0.4-2.6,0.6c-1.7,0.5-3.5,0.9-5.2,1.4c-1.7,0.5-3.3,0.9-5.1,1.1    c-1.7,0.3-3.3,0.4-5,0.7c-1.7,0.3-3.4,0.4-5.1,0.6c-1.6,0.2-3.2,0.2-4.8,0.1c-1.5-0.1-3-0.5-4.5-0.8c-1.4-0.3-2.7-0.8-3.9-1.5    c-1.3-0.6-2.5-1.5-3.5-2.4c-0.3-0.3-0.6-0.6-0.9-0.9c-0.1-0.3-0.1-0.7-0.2-0.9c-0.2-1.3-0.5-2.5,0.1-3.8c0.6-1.4,1.8-2.6,2.8-3.7    c0.6-0.7,1.3-1.3,1.9-2c0.6-0.7,1.1-1.3,1.7-2c0.5-0.6,1.2-1,1.9-1.5c0.8-0.5,1.6-1.1,2.3-1.7c1.5-1.1,3.1-2.2,4.6-3.2    c3.1-2.1,6.4-3.9,9.7-5.8c1.6-1,3.3-1.9,4.9-2.9c1.6-0.9,3.3-1.7,4.9-2.4c1.7-0.8,3.4-1.5,5.1-2c1.7-0.5,3.5-0.9,5.3-1.3    c1.8-0.5,3.6-0.9,5.5-1.2c1.9-0.3,3.7-0.5,5.6-0.6c1.9-0.1,3.7-0.3,5.6-0.5c1.8-0.2,3.7-0.4,5.5-0.4s3.6,0.2,5.4,0.5    c0.9,0.1,1.7,0.3,2.5,0.5c0.8,0.1,1.7,0.2,2.5,0.5c0.7,0.2,1.3,0.6,1.9,1c0.6,0.5,1,1.1,1.5,1.6    C122.7,105,123.7,105.9,123.9,107.5z M131.9,96.6c-0.4,0.6-0.9,1.1-1.4,1.6c-1,1.1-2,2.2-2.9,3.4c-0.7,0.9-1.3,1.9-1.9,2.8    c0,0.1-0.1,0.1-0.1,0.1c-0.3-0.5-0.6-0.9-1-1.3c-0.6-0.6-1.2-1.1-1.7-1.7c-0.9-0.9-1.8-1.7-2.9-2.2c0.4-0.3,0.8-0.5,1.1-0.9    c0.9-0.7,1.7-1.5,2.6-2.2c0.8-0.7,1.7-1.3,2.3-2.1c0.1-0.1,0.1-0.2,0.2-0.3c0.3,0.1,0.7,0.2,1,0.2c1.4,0.2,2.8,0.3,4.2,0.7    c0.5,0.1,1.1,0.3,1.5,0.6c0.1,0.1,0.1,0.1,0.2,0.2C132.5,95.8,132.2,96.2,131.9,96.6z M169.9,72.2c-1.3,2.5-3.7,4.4-6,5.9    c-1.5,0.9-2.7,2.1-4.1,3.1c-1.4,1.1-2.9,2.1-4.3,3.3c-1.5,1.1-2.8,2.3-4.5,3.1c-1.6,0.9-3.1,1.9-4.7,2.7c-1.7,0.9-3.3,1.9-4.9,2.9    c-0.8,0.5-1.6,0.8-2.4,1.2c-0.8,0.3-1.5,0.8-2.1,1.3c-0.3,0.2-0.7,0.5-1.1,0.7c-0.1,0.1-0.2,0.1-0.3,0.1c-0.3-0.3-0.5-1-0.7-1.3    c-0.1-0.1-0.1-0.2-0.2-0.3c0.9-0.5,1.9-1.1,2.9-1.6c1.3-0.7,2.5-1.5,3.7-2.3c1.2-0.8,2.5-1.5,3.8-2.2c1.2-0.7,2.5-1.2,3.5-2.1    c0.3-0.2,0-0.6-0.3-0.5c-1.3,0.3-2.6,1-3.9,1.6c-1.3,0.7-2.5,1.3-3.8,2.1c-1.3,0.8-2.5,1.6-3.7,2.3c-1.1,0.6-2.2,1.2-3.2,1.9    c-0.7-0.4-1.4-0.7-2.2-0.9c-1.4-0.3-2.9-0.5-4.3-0.5c-0.7-0.1-1.4-0.3-2.1-0.5c-0.3-0.1-0.6-0.2-0.9-0.3c0.1,0,0.1-0.1,0.2-0.1    c0.2-0.1,0.5-0.2,0.7-0.3c0.3-0.2,0.6-0.5,0.9-0.7c1.4-1.1,2.9-2.1,4.4-3.1c3.1-2.1,6.5-3.9,9.7-5.9c3.2-1.9,6.5-3.7,9.5-5.9    c1.5-1.1,3-2.1,4.5-3.1c1.5-1,2.9-2.1,4.5-2.9c1.5-0.7,3.1-1.5,4.7-2c1.3-0.4,2.7-0.9,4-1c0.6-0.1,1.1,0.1,1.6,0.3    c0.5,0.3,1.1,0.4,1.3,1.1C170.9,69.5,170.5,70.9,169.9,72.2z"></path>
		<path d="M83.9,115.1c-1.9,0.3-3.7,0.8-5.5,1.3c-1.9,0.5-3.7,1-5.5,1.6c-3.6,1.2-6.7,3.3-10.2,4.8c-3.2,1.3-6.1,3.1-8.7,5.4    c-1.2,1.1-2.4,2.2-3.4,3.5c-0.5,0.7-0.9,1.3-1.3,2.1c-0.3,0.5-0.9,1.1-0.7,1.8c0.1,0.3,0.2,0.5,0.3,0.7c0.4,0.5,1.3,0.1,1.2-0.5    c-0.1-0.5,0.5-1,0.7-1.4c0.4-0.7,0.9-1.3,1.3-1.9c1-1.2,2.1-2.3,3.3-3.3c1.2-1.1,2.5-2,3.9-2.9c1.5-0.9,3-1.5,4.6-2.2    c1.7-0.7,3.2-1.6,4.8-2.5c1.6-0.9,3.3-1.6,5-2.1c3.5-1.1,7.3-1.7,10.5-3.7C84.7,115.5,84.3,115,83.9,115.1z"></path>
		<path d="M113.1,109.3c-1.2-0.2-2.3-0.3-3.5-0.5c-1.2-0.2-2.3-0.4-3.5-0.5c-1.2-0.1-2.3,0.1-3.5,0.2c-2.4,0.3-4.8,0.7-7.1,1.2    c-1.3,0.3-2.5,0.5-3.8,0.9c-1.2,0.3-2.5,0.6-3.7,1.2c-0.5,0.3-0.3,0.8,0.2,0.8c1.2,0,2.5-0.3,3.6-0.5c1.2-0.3,2.4-0.5,3.6-0.7    c2.3-0.4,4.7-0.7,7-1c1.1-0.1,2.2-0.3,3.3-0.3c1.1,0,2.2,0.2,3.3,0.4c1.1,0.2,2.2,0.3,3.3,0.5c0.5,0.1,1.1,0.1,1.6,0.2    c0.5,0.1,1.1,0.2,1.5,0c0.3-0.1,0.3-0.3,0.3-0.7C115.4,109.6,113.9,109.4,113.1,109.3z"></path>
		<path d="M166.3,69.1c-1.4,0.1-3.1,1.1-3.8,2.3c-0.2,0.3,0.1,0.5,0.4,0.5c0.5-0.1,0.9-0.3,1.4-0.6c0.5-0.3,0.9-0.5,1.5-0.6    c0.4-0.1,0.8-0.2,1.2-0.1c0,0.1-0.1,0.1-0.1,0.1c-0.5,0.6-1.1,0.9-1.7,1.3c-1,0.5-2.3,0.7-3.1,1.5c-0.2,0.2-0.1,0.5,0.1,0.5    c0.7,0.2,1.5,0,2.1-0.2c0.8-0.3,1.5-0.6,2.3-0.9c0.9-0.4,1.7-1.2,1.9-2.1C168.9,69.3,167.3,69.1,166.3,69.1z"></path>
	</g>
	<path d="M66.9,79.9c1.1-2.7,2.1-5.3,2.5-8.1c0.3-2.7-0.1-5.3-0.9-7.7c-0.9-2.8-2.6-5.3-4.9-7.3c-0.9-0.8-2.3,0.7-1.4,1.5   c3.9,3.7,5.8,9,5.1,14.3c-0.4,2.8-1.7,5.3-2.7,8.1c-1.1,2.8-1.3,5.6-0.1,8.2c1.4,3,4.1,5.3,6.7,7.5c0.9,0.7,2.3-0.7,1.4-1.5   c-2.3-1.9-4.7-4-6.1-6.7c-0.7-1.3-0.9-2.7-0.8-4.2C65.9,82.5,66.4,81.2,66.9,79.9z"></path>
	<path d="M83.8,61.3c-0.5-1-2.4-0.1-1.9,0.9c2.1,4.1-2,8.7-3.1,12.8c-1.2,4.8,1.8,8.5,5,11.9c0.8,0.9,2.4-0.4,1.6-1.3   c-1.6-1.7-3.2-3.4-4.1-5.5c-0.9-2.1-0.8-4.2,0.1-6.4C82.9,69.6,85.9,65.3,83.8,61.3z"></path>
	<path d="M54.8,79.7c-0.1-1.1-2.1-0.9-2.1,0.3c0.1,3.1-2.4,6.1-3.9,8.9c-0.8,1.5-1.4,3.1-1.3,4.7c0,1.9,1,3.7,2.5,5   c1.7,1.6,4.1,2.7,6.3,3.7c1.1,0.5,2.1-1.2,1-1.7c-2.4-1.1-4.9-2.3-6.5-4.1c-1.4-1.7-1.5-3.7-0.7-5.8C51.6,87.1,54.9,83.7,54.8,79.7   z"></path>
</g>
</svg>
