<?xml version="1.0" encoding="UTF-8"?>
<svg xmlns="http://www.w3.org/2000/svg" xmlns:xlink="http://www.w3.org/1999/xlink" version="1.1" id="Ebene_1" x="0px" y="0px" width="200px" height="200px" viewBox="0 0 200 200" style="enable-background:new 0 0 200 200;" xml:space="preserve">
<style type="text/css">
	.st0{fill:#FFD126;}
</style>
<circle class="st0" cx="100" cy="100" r="100"></circle>
<g>
	<g>
		<path d="M59.2,159.1c-1.1-0.3-1-1.5-0.9-2.3c-0.3-10.6-1.1-21.3-0.7-31.9c0.2-16-0.4-32,0-48c0.3-8.2,0.5-16.5,0.9-24.7    c0-0.7,0.6-1.3,1.3-1.3c0.7,0,1.3,0.6,1.3,1.3c-0.1,2.6-0.3,5.1-0.4,7.7c-1.2,23.9-0.2,47.9-0.6,71.8c-0.1,5.3,0.1,10.6,0.4,15.9    C60.4,149.7,62.4,160.1,59.2,159.1z"></path>
	</g>
	<g>
		<path d="M145.6,158.7c-0.6-0.3-0.9-0.9-0.7-1.6c0,0.1-0.1,0.2-0.1,0.4c-0.7-35.9-0.2-71.9,0.2-107.8c-0.4-1.7,2.3-2.3,2.5-0.5    c0.1,14.8-0.3,29.6-0.5,44.4c-0.1,15.9,0,31.7,0.1,47.6c0.1,3.9,0.3,7.8,0.2,11.6C147,154.5,148.5,159.3,145.6,158.7z"></path>
	</g>
	<g>
		<path d="M58.6,51.9c-0.6-2.8,1.3-4.5,4-4.6c3.6-0.4,7.3-0.3,10.9-0.3c7.7-0.2,15.4,0.1,23.1,0.2c15.7,0,31.4-0.5,47.1,0.2    c4.7-0.1,3.4,3.5,1.3,2.7c-6.1-0.7-12.3-0.4-18.4-0.5c-7.9-0.1-15.8,0-23.7,0.1c-10.3,0.2-20.5-0.4-30.8-0.2    c-3.6,0.2-7.4-0.4-10.8,0.7c-0.2,0.4-0.1,0.8-0.1,1.2C61.4,53.2,58.9,53.5,58.6,51.9z"></path>
	</g>
	<g>
		<path d="M116,159.9c-13.5-0.4-26.9,0.2-40.4-0.1c-5-0.2-10-0.3-15-0.4c-0.7,0-1.3-0.6-1.3-1.3c0-0.7,0.6-1.3,1.3-1.3    c2.2,0,4.4,0.1,6.6,0.1c13.4,0.5,26.9,0.3,40.3,0.1c8,0.2,16,0.3,24.1,0.2c3.5,0,7-0.1,10.5-0.3c0.9,0,1.8,0,2.8-0.1    c0.4-0.2,0.9-0.1,1.3,0.2c0.6,0.4,0.6,1.2,0.2,1.8c-1.3,1.2-4.5,0.5-6.3,0.8C132.1,160,124,160,116,159.9z"></path>
	</g>
	<g>
		<path d="M77.5,149.1c-2.9-0.1-5.9-0.3-8.8-0.2c-0.7,0-1.3-0.6-1.3-1.3c0.2-2.2,3.5-1.1,5-1.3c2.3,0.1,4.6,0.1,6.9,0.4    c1.5,0.6,0.7,2.9-0.8,2.4c0.1,0,0.2,0,0.4,0C78.4,149.1,78,149.1,77.5,149.1z"></path>
	</g>
	<g>
		<path d="M145,72.6c-13,0-26.1-0.6-39.1-0.4c-14.8,0.6-29.6,0-44.5-0.3c-1.6,0-1.7-2.6,0-2.6c7.8,0.1,15.5,0.4,23.3,0.7    c13.3,0,26.7-0.7,40.1-0.2c6.8,0.2,13.7,0.2,20.5,0.3C147.2,70,147,73,145,72.6z"></path>
	</g>
	<g>
		<path d="M134.2,64.3c-1.8-0.4-4.6-2.3-4.1-4.4c-0.8-4.8,6.5-6.5,8.7-2.4C140.6,60.5,137.9,65,134.2,64.3z M135,61.8    c1.6,0,2.4-2.4,1.3-3.4c-1.5-1.4-3.7-0.4-3.8,1.6C132.9,60.8,133.9,61.7,135,61.8z"></path>
	</g>
	<g>
		<path d="M118.5,63.7c-1.4-0.3-3.3-1.4-3.2-3.1c-1.5-4.3,3.8-7.8,7.1-4.7C125.6,58.8,122.6,64.5,118.5,63.7z M119.3,61.2    c1.4-0.1,2.5-2,1.5-3.2c-0.8-1-2.6-0.8-3,0.5c-0.3,0.6,0.1,1.3,0,2C118.1,60.9,118.7,61.2,119.3,61.2z"></path>
	</g>
	<g>
		<path d="M103.7,64.1c-1.8-0.3-3.8-1.7-3.9-3.7c-1.1-4.2,5.2-6.7,7.8-3.6C110.7,59.7,107.8,65.2,103.7,64.1z M104.9,61.6    c1.6-0.2,1.9-2.5,0.5-3.2c-1.2-0.9-3.3-0.1-3.2,1.5C102.5,61.1,103.8,61.7,104.9,61.6z"></path>
	</g>
	<g>
		<path d="M69.1,64.5c-1.7,0-1.7-2.6,0-2.6c2.7,0,5.6-0.2,8.2-0.4c0.9,0,2.2-0.5,2.7,0.7c0.4,1-0.5,1.9-1.5,1.8    C75.4,64.2,72.3,64.5,69.1,64.5z"></path>
	</g>
	<g>
		<path d="M67.4,63.5c-0.4-3.1-1.7-9.3,2.9-9.5c2.8,0,7.7-0.4,9.6,2c0.9,1.4,1.8,8.7-1.4,7.4c-1.1-0.6-0.4-1.8-0.4-2.7    c0-1.1,0.2-2.8-0.7-3.5c-2.5-0.6-5.1-0.9-7.6-0.4c-0.5,2-0.2,4.1,0.1,6c0.2,0.7-0.2,1.5-0.9,1.7C68.3,64.6,67.5,64.2,67.4,63.5z"></path>
	</g>
	<g>
		<path d="M100.8,129.7c-7-0.9-12.8-7.2-13.3-14.2c-0.1-4.2,1.4-8.8,4.3-11.9c4.5-5,13-5.7,18.8-2.6c1.8,1.2,3.7,2.5,4.7,4.4    c1,1.3-0.9,2.8-2,1.7c-1-1.8-2.6-3-4.3-4c-4.7-2.2-11.3-1.8-15.1,2c-3.6,3.8-5,10-2.7,14.8c1.5,3.6,5,6,8.6,7.2    c4.7,0.8,9.7-1.1,12.9-4.6c0.5-0.5,1.3-0.6,1.8-0.2c2,1.8-3.5,4.9-4.9,5.6C106.9,129.2,103.8,129.9,100.8,129.7z"></path>
	</g>
	<g>
		<path d="M122.4,131.5c-1.1-0.4-1.6-1.5-2.4-2.3c-1.2-1.4-2.4-2.7-3.6-3.8c-4.3-3.9-5.1-4.7-5.2-10.7c0.1-2-0.3-4.3,0.6-6.1    c2.8-3.8,6.6-6.8,9.7-10.3c2.6-3.5,6.6,5.4,7.4,7.3c2.4,6.9,1.7,14.9-1.8,21.3C126,128.6,124.6,132,122.4,131.5z M118.9,124.2    c1.4,1.4,2.7,2.9,4,4.4c6.1-8,6.6-20.3,0-28.2c-2.9,3.4-6.9,6-9.1,9.9c-0.2,3.1-0.2,6.1,0.5,9.1    C115.6,121.4,117.4,122.6,118.9,124.2z"></path>
	</g>
	<g>
		<path d="M98.9,140.9c-6.8-0.9-13.4-4.4-17.5-10c-4.5-6.8-6.7-15.3-4.7-23.3c1.9-7.5,7.6-13.9,14.6-17.1c6.8-2.7,15-2.6,21.7,0.5    c2,0.9,3.9,2.1,5.7,3.4c1.2,1.1,5.3,3,3.5,4.9c-0.6,0.4-1.4,0.3-1.8-0.2c-0.8-0.8-1.7-1.5-2.6-2.2c-3.9-2.9-8.5-5.2-13.5-5.5    c-8.4-0.7-15.3,1.8-20.7,8.4c-7.3,8.3-6,20.9-0.2,29.6c8.4,11.9,28.4,12.4,36.9,0.5c0.4-0.5,1.2-0.7,1.8-0.2    c0.5,0.4,0.7,1.3,0.2,1.8c-1,1.4-2,2.7-3.4,3.8C113.4,139.6,106.1,141.9,98.9,140.9z"></path>
	</g>
	<g>
		<path d="M93.7,116.4c-1.5-2.4-0.3-6.8,1.4-9c0.9-1.4,4.2-4.3,5-1.6c0.1,1.1-0.9,1.3-1.6,1.7c-1.1,0.8-1.8,2-2.3,3.2    c-0.5,1.4-0.6,3-0.4,4.5C96,116.4,94.6,117.1,93.7,116.4z"></path>
	</g>
	<g>
		<path d="M95.1,120.5c0-0.7,0.6-1.3,1.3-1.3c0.7,0,1.3,0.6,1.3,1.3c0,0.7-0.6,1.3-1.3,1.3C95.7,121.8,95.1,121.2,95.1,120.5z"></path>
	</g>
	<g>
		<path d="M64.7,122.8c-0.7,0-1.3-0.6-1.2-1.3c0-4.5-0.1-9,0.2-13.4c0.5-10.4,0.2-20.9,0.7-31.3c0.1-0.7,0.8-1.2,1.5-1.1    c1.9,0.3,0.7,3.7,0.9,5.1c-0.2,6.4-0.1,12.7-0.3,19.1c-0.1,5-0.4,10-0.4,15c0,2.1,0,4.2,0,6.3C66.1,122,65.5,122.8,64.7,122.8z"></path>
	</g>
	<g>
		<path d="M63.3,126.8c0-0.7,0.6-1.3,1.3-1.3c0.7,0,1.3,0.6,1.3,1.3c0,0.7-0.6,1.3-1.3,1.3C63.9,128.1,63.3,127.5,63.3,126.8z"></path>
	</g>
	<g>
		<path d="M54.7,50.4c-1.2-2.9,1.9-5.5,4.2-6.8c1.5-0.8,2.7,1.4,1.2,2.3c-1.3,0.8-3.1,1.8-3.2,3.5C57.3,50.7,55.5,51.5,54.7,50.4z"></path>
	</g>
	<g>
		<path d="M146.9,162.8c-1.1-0.3-1.2-1.9-0.3-2.4c0.5-0.2,0.9-0.5,1.3-0.9c1-0.7,0.5-2.5,2.2-2.3C153.3,158.4,149,163.3,146.9,162.8    z"></path>
	</g>
	<g>
		<path d="M141.5,42.6c0-1.5-1.5-4.4,0.7-4.8c0.7-0.1,1.3,0.5,1.4,1.1c0.1,1.4,0.8,2.8,0.3,4.1C143.2,44,141.6,43.7,141.5,42.6z"></path>
	</g>
	<g>
		<path d="M146,42.7c-1.4-0.7-0.4-2.2,0-3.2c0.2-0.7,0.8-1.2,1.5-1.1c0.8,0.1,1.3,1.1,0.9,1.8C148,41.3,147.6,43.4,146,42.7z"></path>
	</g>
	<g>
		<path d="M51.2,116.6c-1.9-0.1-3.3-2-3.3-3.8c0-2.3,3-4.1,4.9-2.6C56,111.3,54.7,116.9,51.2,116.6z M51.5,114    c0.7-0.1,0.8-1.3,0.2-1.7C50.3,111.6,50.2,113.9,51.5,114z"></path>
	</g>
	<g>
		<path d="M156.6,132.9c-1.4-0.8-5.9-1.2-5.8-3.1c0-1,1.2-1.5,2-1c1.5,0.6,3.1,1.1,4.7,1.6C159,131,158.2,133.5,156.6,132.9z"></path>
	</g>
	<g>
		<path d="M153,134.2c-2-0.9,0.1-3.3,0.4-4.7c0.6-1.1,0.9-3.4,2.6-2.9c2,0.8,0,3.1-0.3,4.3C154.9,132,154.9,134.6,153,134.2z"></path>
	</g>
</g>
</svg>
