<?xml version="1.0" encoding="UTF-8"?>
<svg xmlns="http://www.w3.org/2000/svg" xmlns:xlink="http://www.w3.org/1999/xlink" version="1.1" id="Ebene_1" x="0px" y="0px" width="200px" height="200px" viewBox="0 0 200 200" style="enable-background:new 0 0 200 200;" xml:space="preserve">
<style type="text/css">
	.st0{fill:#FFD126;}
</style>
<circle class="st0" cx="100" cy="100" r="100"></circle>
<g>
	<path d="M54.5,48.3L54.5,48.3C54.6,48.3,54.6,48.3,54.5,48.3L54.5,48.3z"></path>
	<path d="M145.8,150.2c0.2-0.2,0.4-0.5,0.3-0.9c0-0.1,0-0.1,0-0.2c0.1-2,0.1-4,0.1-6c0-2.2,0-4.4,0.1-6.6c0-4.7,0.1-9.3,0.1-14l0,0   c0-0.1,0-0.3,0-0.5v0.1c0-3.2,0-6.5,0-9.7c0-4.7,0-9.3-0.1-14c0,0.1,0,0.1,0,0.1c0-0.1,0-0.3,0-0.5l0,0c0-0.1,0-0.3,0-0.4   c0,0.1,0,0.1,0,0.1c0-3-0.1-6.1-0.1-9.1c-0.1-2.4-0.1-4.9-0.1-7.3c-0.1-2.3-0.1-4.5-0.1-6.8c0-2.4-0.1-4.7-0.1-7.1   c-0.1-2.4-0.1-4.8-0.2-7.1c-0.1-2.1-0.1-4.3-0.1-6.3c0-1.5,0-3-0.1-4.5c-0.1-0.5-0.3-0.8-0.7-0.9c-0.2-0.3-0.5-0.6-0.9-0.6   c-0.1,0-0.3,0-0.5,0c-4-0.1-8-0.1-12-0.2c-2.1,0-4.1,0-6.3-0.1c-2.2-0.1-4.4-0.1-6.5-0.1c-4.5,0-8.9-0.1-13.5-0.1   c-4.3-0.1-8.7,0-13.1,0c-2.1,0-4.3-0.1-6.4-0.1c-2.3,0-4.5,0.1-6.8,0.1c-2.1,0-4.3,0.1-6.5,0.1c-2.3,0.1-4.5,0.1-6.7,0.1   c-2.1,0-4.3,0.1-6.5,0.1c-1,0-2,0.1-2.9,0.1c-0.3,0.1-0.7,0.1-1.1,0.1c-0.1,0-0.3,0.1-0.5,0.1c-0.5,0.1-0.9,0.7-0.9,1.3   c0,0.1,0.1,0.2,0.1,0.3c-0.1,0.2-0.3,0.4-0.3,0.7c-0.1,1.7-0.1,3.5-0.2,5.3c-0.2,4.4-0.3,8.9-0.3,13.3c0,2.3-0.1,4.7-0.1,7   c0,2.3-0.1,4.7-0.1,7c0,4.7-0.1,9.3,0,14.1c0,4.5,0,9.1,0.1,13.6c0.1,4.6,0.1,9.2,0.2,13.8c0.1,2.3,0.1,4.7,0.1,7   c0.1,2.1,0.1,4.3,0.1,6.5c0.1,2.3,0.1,4.5,0.1,6.9c0.1,1.1,0.1,2.1,0.1,3.2c0,0.4,0,0.8,0.1,1.1c0,0.2,0.1,0.5,0.1,0.7   c0.1,0.3,0.4,0.5,0.7,0.6c0.1,0.1,0.1,0.1,0.1,0.1c0.2,0.1,0.4,0.1,0.5,0.1c0.9,0.1,1.8,0.1,2.7,0.1c1.1,0,2.2,0.1,3.3,0.1   s2.2,0,3.3,0c0,0.5-0.1,1-0.1,1.5c0,0.8,0,1.5,0,2.3c0,0.6,0.5,1,1.1,1h0.1c0.6-0.1,1-0.6,1-1.2c0-0.1,0-0.2,0-0.3c0-0.7,0-1.3,0-2   c0-0.4,0-0.9,0.1-1.3c0.3,0,0.6,0,0.9,0c3.7,0,7.3,0,10.9,0c0,0.1,0,0.3,0,0.4c0,0.4-0.1,0.8-0.1,1.3c0,0.7,0,1.4,0,2.1   c0,0.6,0.5,1,1.1,1h0.1c0.3,0,0.5-0.2,0.7-0.4c0.2-0.2,0.3-0.5,0.3-0.8l0,0c0,0,0,0,0-0.1c0,0,0,0,0-0.1l0,0c0-1.1,0-2.1,0.1-3.1   c0-0.1,0-0.2,0-0.3c0.1,0,0.1,0,0.2,0c4.3,0,8.7,0.1,13.1,0.1c4.4,0.1,8.8,0.1,13.1,0.1c2.2,0.1,4.4,0.1,6.6,0.1c1.1,0,2.2,0,3.3,0   c0.3,0,0.5,0,0.7,0c-0.1,0.2,0,0.5,0,0.7c0,0.3,0,0.7,0.1,1.1l0,0l0,0l0,0c0,0.5,0,1.1,0.1,1.7c0,0.6,0.5,1,1.1,1h0.1   c0.6-0.1,1-0.6,1-1.2c0-0.2,0-0.4,0-0.7s0-0.5,0-0.8c0-0.5,0-0.9-0.1-1.4c0-0.1,0-0.2,0-0.3c0.1,0,0.3,0,0.5,0   c3.8,0,7.7,0.1,11.5,0.1c0,0.1,0,0.1,0,0.2l0,0c0,0.3,0,0.7,0.1,1.1c0,0.4,0.1,0.8,0.1,1.2c0,0.3,0,0.7,0,1.1   c0,0.6,0.4,1.1,1.1,1.1l0,0c0.5,0,1.1-0.5,1.1-1.1c0-0.8,0-1.6-0.1-2.4c0-0.4-0.1-0.8-0.1-1.3l0,0c2.1,0,4.3,0,6.3-0.1   c1,0,1.9-0.1,2.9-0.1c0.5,0,1.1-0.1,1.7-0.1C145.3,150.9,145.7,150.6,145.8,150.2z M141.8,148.9c0.1,0,0.1,0,0.1,0   c-2.7,0.1-5.4,0.1-8.1,0.1c-2.4,0-4.9,0-7.3,0c-2.1,0-4.1,0-6.2,0c-4.4,0-8.8,0-13.3-0.1c-4.4-0.1-8.8-0.1-13.1-0.1   c-4.4-0.1-8.8-0.1-13.2-0.1c-4.4,0-8.7,0-13.1,0c-2.1,0-4.3,0-6.4-0.1c-1.1,0-2.1-0.1-3.2-0.1c-0.7,0-1.5-0.1-2.1-0.1   c-0.1-2.1-0.2-4.2-0.3-6.3c-0.1-2.2-0.1-4.4-0.1-6.6c-0.1-2.2-0.1-4.5-0.1-6.7c-0.1-2.3-0.1-4.6-0.1-6.9c-0.1-4.6-0.1-9.2-0.2-13.8   c0-2.1,0-4.1,0-6.3c0-2.3,0-4.5,0-6.7c0-2.3,0-4.7,0-7c0-4.6,0.1-9.2,0.1-13.8c0.1-4.6,0.1-9.3,0.2-13.9c0.1-2.1,0.1-4.2,0.2-6.3   c0.1-1.2,0.1-2.4,0.1-3.5c0-0.1,0-0.1,0-0.2c0.3-0.1,0.7-0.1,1.1-0.1c1.5-0.1,3-0.1,4.5-0.1c1.7-0.1,3.3-0.1,4.9-0.1   c4.4-0.1,8.8-0.2,13.1-0.3c2.3,0,4.5-0.1,6.8-0.1c2.2,0,4.3,0,6.5,0.1c1.2,0,2.4,0,3.5,0c1,0,2.1,0,3.1,0c2.1,0,4.3,0,6.4,0.1   c4.5,0.1,8.9,0.1,13.3,0.1c2.1,0,4.3,0.1,6.5,0.1c2.1,0.1,4.2,0.1,6.3,0.1c2.1,0,4.1,0.1,6.3,0.1c0.9,0,1.9,0,2.9,0.1   c0.7,0,1.5,0.1,2.3,0.1c0.1,0.7,0.1,1.3,0.1,1.9c0,1.3,0.1,2.6,0.1,3.9c0.1,4.7,0.3,9.3,0.4,14c0.1,2.3,0.1,4.7,0.1,7   c0,2.3,0.1,4.5,0.1,6.8c0,2.4,0.1,4.8,0.1,7.2c0.1,2.2,0.1,4.4,0.1,6.6c0,0.1,0,0.2,0,0.3l0,0v0.1v0.1l0,0l0,0l0,0c0,0,0,0,0,0.1   l0,0l0,0c0,0.1,0,0.3,0,0.5c0-0.1,0-0.1,0-0.1c0,3.3,0,6.5,0.1,9.7c0,4.7-0.1,9.3,0,13.9v-0.1c0,0.1,0,0.3,0,0.5c0,0,0,0,0-0.1   c0,0.5,0,1.1,0,1.6c0,4.7-0.1,9.5-0.1,14.2c0,2.1-0.1,4.3,0,6.4c0,1.1,0,2.1,0,3.1c0,0.3,0,0.6,0,0.9   C143.3,148.8,142.5,148.9,141.8,148.9z"></path>
	<path d="M119.9,152.8L119.9,152.8v0.1C119.9,152.9,119.9,152.9,119.9,152.8z"></path>
	<path d="M73.4,58.6L73.4,58.6c0.1,0,0.1,0,0.1,0C73.5,58.6,73.4,58.6,73.4,58.6z"></path>
	<path d="M82,58.3L82,58.3c0.1,0,0.1,0,0.1,0C82.1,58.3,82.1,58.3,82,58.3z"></path>
	<path d="M137.3,124.4c0-1.1,0-2.3,0-3.4c0,0.1,0,0.1,0,0.1c0-0.1,0-0.3,0-0.5c0,0.1,0,0.1,0,0.1c0-4.4-0.1-8.8-0.1-13.3   c0-2.3-0.1-4.5-0.1-6.8c-0.1-2.3-0.1-4.7-0.1-7.1c0,0.1,0,0.1,0,0.1c0-2.8,0.1-5.6,0-8.5c0-0.1,0-0.3,0-0.3c0-0.6,0-1.2,0-1.8   c0-2.3,0-4.7-0.1-7.1c0-2.3-0.1-4.6-0.1-6.9c-0.1-2.1-0.1-4.2-0.1-6.3c-0.1-1.1-0.1-2.1-0.2-3.2v-0.1c0-0.3-0.1-0.5-0.2-0.7   c0-0.1-0.1-0.1-0.1-0.1s-0.1-0.1-0.1-0.1c-0.3-0.3-0.6-0.4-1-0.3l0,0c-0.1,0-0.2,0-0.3,0c-4.1-0.3-8.2-0.5-12.3-0.5   c-2.3,0-4.5,0-6.8-0.1c-2.3,0-4.5-0.1-6.9-0.1c-4.4,0-8.8,0.1-13.1,0.1c-2.1,0-4.3,0-6.5,0c-2.3,0-4.5,0.1-6.9,0.1   c0.1,0,0.1,0,0.1,0c-0.1,0-0.1,0-0.3,0h0.1h-0.1l0,0c0,0,0,0-0.1,0c0,0,0,0,0.1,0l0,0c-0.1,0-0.1,0-0.1,0s-0.1,0-0.1,0   c-2.3,0.1-4.5,0.1-6.7,0.3c-0.1,0-0.3,0-0.5,0c0.1,0,0.1,0,0.1,0c-0.3,0-0.6,0-0.9,0c0.1,0,0.1,0,0.1,0c-0.1,0-0.3,0-0.3,0h0.1   c-0.1,0-0.2,0-0.3,0c0.1,0,0.1,0,0.1,0c-0.1,0-0.2,0-0.3,0c-1.3,0.1-2.5,0.1-3.8,0.1c-1.2,0.1-2.3,0.1-3.5,0.2c-0.1,0-0.1,0-0.1,0   l0,0c-0.3,0-0.7,0.1-0.9,0.4c0,0.1-0.1,0.1-0.1,0.1c-0.2,0.2-0.4,0.5-0.4,0.8V60c0,0.2,0,0.3-0.1,0.5c0,0.3-0.1,0.7-0.1,1   c-0.1,0.9-0.1,1.7-0.1,2.5c0,1.5-0.1,3-0.1,4.5c0,0.6,0.5,1.1,1.1,1.1l0,0c0.6,0,1.1-0.5,1.1-1.1c0-1.4,0.1-2.8,0.1-4.1   c0-1.1,0.1-2.3,0.1-3.5c0.1,0,0.1,0,0.2,0c0.7-0.1,1.4-0.1,2.1-0.1c1.5-0.1,2.9-0.1,4.4-0.2c0.1,0,0.1,0,0.2,0c0,0,0,0-0.1,0   c0.1,0,0.3,0,0.3,0h-0.1c0.1,0,0.2,0,0.3,0H74c0.3,0,0.5,0,0.9,0c-0.1,0-0.1,0-0.1,0c0.1,0,0.3,0,0.4,0h-0.1c2.3-0.1,4.7-0.1,7-0.3   c-0.1,0-0.1,0-0.1,0c0.1,0,0.1,0,0.3,0c0.1,0,0.2,0,0.3,0c-0.1,0-0.1,0-0.1,0c0.1,0,0.2,0,0.3,0c-0.1,0-0.1,0-0.1,0   c0.3,0,0.5,0,0.7,0c2.3-0.1,4.5-0.1,6.8-0.1c2.1,0,4.3,0,6.5,0c4.4,0,8.9-0.1,13.3-0.1c2.2,0,4.4,0,6.6,0.1c2.3,0,4.5,0,6.9,0.1   c3.7,0.1,7.3,0.2,11.1,0.5c0.1,1.3,0.1,2.7,0.2,3.9c0.1,2.1,0.1,4.3,0.1,6.5c0.1,4.6,0.1,9.2,0.1,13.9v-0.1c0,0.1,0,0.3,0,0.4v-0.1   c0,0.1,0,0.1,0,0.1c0,2.5,0,5.1,0,7.6c0,2.4,0.1,4.8,0.1,7.3c0.1,2.3,0.1,4.5,0.1,6.7c0.1,4.5,0.1,9.1,0.1,13.7c0-0.1,0-0.1,0-0.1   c0,0.1,0,0.3,0,0.4l0,0c0,0.1,0,0.1,0,0.3v-0.1v-0.1c0,1.9,0,3.7,0,5.5c0,0.1,0,0.1,0,0.2c0,2.1,0,4.1,0,6.1c0,1,0,1.9-0.1,2.9   c0,0.6-0.1,1.2-0.1,1.8c-0.5,0-1,0.1-1.5,0.1c-1,0.1-1.9,0.1-2.9,0.1c-2.2,0.1-4.4,0.1-6.6,0.1c-2.2,0.1-4.4,0.1-6.6,0.1   s-4.4,0-6.6,0.1c-2.3,0-4.5,0.1-6.7,0.1c-2.2,0-4.3,0-6.5,0c-2.3,0-4.5,0.1-6.7,0.1c-2.3,0-4.5-0.1-6.7-0.1   c-2.2-0.1-4.5-0.1-6.7-0.2l0,0c-0.2,0-0.3,0-0.5,0c0.1,0,0.1,0,0.1,0c-1.9-0.1-3.7-0.2-5.6-0.3c-1.6-0.1-3.1-0.2-4.7-0.3   c-0.1-0.3-0.1-0.7-0.1-1.1c-0.1-1.1-0.1-2.3-0.2-3.5c0-0.8,0-1.6,0-2.4c0-0.6-0.5-1.1-1.1-1.1c-0.6,0-1.1,0.5-1.1,1.1v0.1   c0,1.5,0,3.1,0.1,4.6c0,0.5,0.1,1,0.1,1.5c0.1,0.5,0.1,0.9,0.1,1.3c0.1,0.2,0.1,0.5,0.2,0.7c0.1,0.2,0.3,0.3,0.5,0.4   c0.1,0.1,0.1,0.1,0.1,0.2c0.2,0.2,0.5,0.3,0.8,0.3c0.1,0,0.1,0,0.2,0l0,0c3.7,0.1,7.4,0.5,11.1,0.6c0,0,0,0-0.1,0   c2.5,0.1,5.1,0.1,7.7,0.2c2.3,0.1,4.5,0.1,6.7,0.1c0.1,0,0.2,0,0.3,0c2.1,0,4.2-0.1,6.3-0.1c2.2,0,4.4,0,6.6,0   c2.3,0,4.5-0.1,6.7-0.1c2.2,0,4.3,0,6.5-0.1c2.2,0,4.4-0.1,6.6-0.1c2.2-0.1,4.5-0.1,6.7-0.2c1.1-0.1,2.1-0.1,3.2-0.1   c0.3,0,0.7,0,1.1-0.1c0.2,0,0.4,0,0.5-0.1c0,0,0,0,0.1,0c0.1-0.1,0.3-0.1,0.5-0.3c0.1-0.1,0.1-0.2,0.1-0.3c0.1-0.3,0.1-0.6,0.1-0.9   c0.1-0.5,0.1-1,0.1-1.5c0.1-1.1,0.1-2.1,0.1-3.2c0-2.3,0-4.5,0-6.7v0.1c0-0.9,0-1.7,0-2.7C137.3,124.3,137.3,124.4,137.3,124.4z    M64.8,137.7c0-0.1,0.1-0.1,0.1-0.1l0,0c0-0.1,0.1-0.1,0.1-0.1l0,0c0-0.1,0.1-0.1,0.1-0.1c0.1,0,0.1-0.1,0.1-0.1l0,0   c0.1,0,0.1-0.1,0.1-0.1l0,0c0,0,0,0,0.1,0C65.1,137.3,64.9,137.5,64.8,137.7z"></path>
	<path d="M137,85.3L137,85.3v0.1C137,85.5,137,85.4,137,85.3z"></path>
	<path d="M65.5,113L65.5,113c0.6,0,1.1-0.5,1.1-1.1c0-3.9,0-7.7-0.1-11.5c-0.1-2.3-0.1-4.7-0.1-7c0-1.1,0-2.2,0-3.3   c0-0.5,0-1.1,0-1.6c0-0.2,0-0.5,0-0.7c0-0.1,0-0.2,0-0.3c-0.1-0.6-0.6-1.1-1.2-1c-0.5,0.1-1,0.6-0.9,1.2c0,0.3,0,0.5,0,0.9   c0,0.5,0,0.9,0,1.5c0,1,0,1.9,0,2.9c0,2,0.1,4,0.1,5.9c0,2.3,0.1,4.5,0.1,6.7c0,2.1,0,4.1,0,6.2C64.4,112.5,64.9,113,65.5,113z"></path>
	<path d="M118.1,94.3c-0.8-0.5-1.8-0.6-2.7-0.6c-1,0-2,0.1-2.9,0.6c-0.9,0.5-1.8,1.3-2.4,2.2c-0.3,0.5-0.6,1.1-0.7,1.7   c-0.1,0.5-0.1,1.1-0.2,1.6c-0.1,1.1,0.1,2.1,0.5,3.1c0.7,1.7,2.2,3.1,4,3.5c0.5,0.1,1,0.2,1.5,0.2l0,0c0.5,0,1-0.1,1.5-0.2   c1.1-0.3,2-0.9,2.8-1.7c1-1,1.7-2.2,1.9-3.7c0.1-1.1-0.1-2.3-0.5-3.4c-0.4-0.9-0.9-1.7-1.5-2.3c-0.1-0.1-0.1-0.1-0.3-0.2V95l0,0   l0,0l0,0c0-0.1-0.1-0.1-0.1-0.1c0,0,0,0,0,0.1C118.7,94.7,118.5,94.5,118.1,94.3z M119,99c0.1,0.2,0.1,0.3,0.1,0.5   c0,0.2,0.1,0.3,0.1,0.5c0,0.2,0,0.3,0,0.5c0,0.1,0,0.3-0.1,0.4c0,0.1-0.1,0.3-0.1,0.4c-0.1,0.1-0.1,0.3-0.1,0.3   c-0.1,0.1-0.1,0.3-0.3,0.5c-0.1,0.2-0.3,0.3-0.4,0.5c-0.2,0.2-0.4,0.4-0.6,0.6c-0.1,0.1-0.2,0.2-0.3,0.3c-0.2,0.1-0.4,0.3-0.5,0.3   c-0.1,0.1-0.3,0.1-0.4,0.1c-0.1,0.1-0.3,0.1-0.4,0.1c-0.2,0.1-0.4,0.1-0.6,0.1c-0.2,0-0.4,0-0.6,0c-0.3,0-0.5-0.1-0.7-0.1   c-0.2-0.1-0.3-0.1-0.5-0.1c-0.1-0.1-0.2-0.1-0.3-0.1c-0.1-0.1-0.3-0.1-0.4-0.3c-0.1-0.1-0.2-0.2-0.3-0.3c-0.1-0.1-0.2-0.2-0.3-0.3   s-0.2-0.3-0.3-0.4c-0.1-0.1-0.2-0.3-0.3-0.5c-0.1-0.1-0.1-0.3-0.1-0.3c-0.1-0.1-0.1-0.3-0.1-0.4c-0.1-0.3-0.1-0.5-0.1-0.8   c0-0.3,0-0.7,0-1c0-0.3,0.1-0.5,0.1-0.7c0-0.1,0.1-0.3,0.1-0.4c0.1-0.1,0.1-0.3,0.2-0.5c0.1-0.1,0.1-0.3,0.2-0.4   c0.1-0.1,0.1-0.2,0.2-0.3s0.2-0.2,0.3-0.3c0.1-0.1,0.3-0.3,0.5-0.4c0.1-0.1,0.3-0.2,0.4-0.3c0.1-0.1,0.2-0.1,0.3-0.1   c0.2-0.1,0.4-0.1,0.6-0.1c0.3-0.1,0.5-0.1,0.9-0.1c0.2,0,0.5,0,0.7,0s0.4,0.1,0.7,0.1c0.1,0,0.3,0.1,0.4,0.1   c0.1,0.1,0.2,0.1,0.3,0.1c0.1,0,0.1,0.1,0.1,0.1c0,0,0.1,0,0.1,0.1c0.1,0.1,0.2,0.2,0.3,0.3c0.1,0.1,0.1,0.2,0.2,0.3   c0.1,0.1,0.1,0.1,0.1,0.1c0.2,0.2,0.3,0.4,0.5,0.7c0.1,0.2,0.3,0.4,0.3,0.6C118.9,98.6,118.9,98.8,119,99z"></path>
	<path d="M62.6,72.7L62.6,72.7L62.6,72.7L62.6,72.7z"></path>
	<path d="M61.1,78.3L61.1,78.3c0,1.3,0.1,2.7,0.1,4c0,0.3,0.2,0.7,0.5,0.8l0,0c0.2,0.4,0.6,0.6,1,0.6c0.1,0,0.1,0,0.2,0l0,0l0,0l0,0   c0.2,0,0.4,0,0.5,0c0.9,0,1.8,0,2.7,0c0.9,0,1.8,0,2.7,0c1,0,2,0,2.9,0c0.3,0,0.5-0.1,0.7-0.2c0.1,0,0.1,0,0.1,0h0.1   c0.5,0,1.1-0.5,1.1-1.1c0-1.1,0-2.3,0.1-3.4c0-0.8,0.1-1.6,0.1-2.4c0-0.8,0-1.5-0.1-2.3c0-0.1-0.1-0.3-0.1-0.5c0,0.1,0,0.1,0,0.1   l0,0V74c0-0.1,0-0.3-0.1-0.3c-0.1-0.5-0.6-0.7-1.1-0.7c-0.1-0.1-0.3-0.2-0.5-0.2h-0.1c-1.5-0.1-3-0.1-4.5-0.1c-0.9,0-1.8,0-2.7,0   c-0.7,0-1.4-0.1-2.1,0c-0.5,0-0.8,0.3-1,0.7c-0.1,0.1-0.1,0.1-0.2,0.1c-0.2,0.3-0.3,0.5-0.3,0.9c0,0.4-0.1,0.8-0.1,1.1   c0,0.9,0,1.7,0,2.5l0,0C61.1,78.1,61.1,78.2,61.1,78.3L61.1,78.3z M64.9,75c0.9,0,1.8,0,2.7,0c1.4,0,2.7,0,4.1,0.1   c0,0.3,0.1,0.6,0.1,0.9c0,1.3-0.1,2.5-0.1,3.8c0,0.6,0,1.2,0,1.7c-0.1,0-0.1,0-0.1,0c-1.4,0-2.7,0-4.1,0c-0.9,0-1.9,0-2.9,0   c-0.4,0-0.7,0-1.1,0c-0.1-1.1-0.1-2.1-0.1-3.2l0,0c0-0.1,0-0.1,0-0.1l0,0c0,0,0,0,0-0.1V78c0,0,0,0,0,0.1c0-0.6,0-1.2,0-1.7   c0-0.5,0-0.9,0.1-1.3C63.9,74.9,64.3,75,64.9,75z"></path>
	<path d="M70.8,126.7c0.5,0,1.1,0,1.5-0.1c0.4,0,0.7-0.3,0.9-0.6c0.3-0.2,0.5-0.5,0.6-0.9c0.1-1.1,0.1-2.2,0.1-3.3   c0-0.9,0.1-1.7,0.1-2.6c0-0.5,0-0.9-0.1-1.3c0-0.3-0.1-0.5-0.1-0.7c0,0.1,0,0.1,0,0.1c0,0.1,0,0.1,0,0.1l0,0c0,0.1,0,0.1-0.1,0.1   l0,0l0,0c0.2-0.5-0.1-1.1-0.5-1.4c-0.1,0-0.1,0-0.1-0.1c-0.2-0.1-0.4-0.3-0.6-0.3c-0.3,0-0.7-0.1-1-0.1c-1.7-0.1-3.3-0.2-4.9-0.3   c-0.9-0.1-1.8-0.1-2.7-0.1c-0.5,0-0.9,0-1.3,0c-0.2,0-0.5,0-0.7,0.1c-0.5,0.2-0.7,0.6-0.7,1.1c-0.1,0.1-0.1,0.3-0.1,0.5l0,0   c0,0.1,0,0.1,0,0.2c0,0.6-0.1,1.1-0.1,1.7c-0.1,0.8-0.1,1.5-0.1,2.3c0,1.1,0,2.3,0.1,3.4c0,0.3,0.1,0.5,0.3,0.6   c0.1,0.4,0.3,0.8,0.7,0.9c0.1,0.1,0.2,0.1,0.3,0.1l0,0c0.5,0,0.9,0,1.3,0.1c1.8,0.1,3.7,0.1,5.5,0.2   C69.6,126.7,70.2,126.7,70.8,126.7z M64.2,124.2c-0.3,0-0.7,0-1.1,0c0-0.5,0-0.9,0-1.3c0-1.1,0-2.1,0.1-3.1c0-0.7,0.1-1.3,0.1-2   c0.3,0,0.7,0,0.9,0c1.7,0,3.3,0.1,5,0.2c0.9,0.1,1.8,0.1,2.7,0.2c0,0.4,0.1,0.7,0.1,1.1v-0.1v0.1v0.1l0,0c0,1.7-0.1,3.5-0.2,5.2   c-0.1,0-0.3,0-0.4,0c-1.5,0-3-0.1-4.5-0.1C65.9,124.3,65.1,124.3,64.2,124.2z"></path>
	<path d="M73.7,88.3c-0.6,0-1.1,0.5-1.1,1.1c0,0.5-0.1,0.9-0.1,1.3c0,0.8,0,1.6-0.1,2.3c0,2,0,4.1-0.1,6.1c0,2.1,0,4.1,0,6.1   c0,0.6,0.5,1.1,1.1,1.1c0.6,0,1.1-0.5,1.1-1.1c0-1.5,0-3,0-4.5c0-2.1,0-4.2,0-6.3c0-1,0-2,0.1-3c0-0.5,0-1,0.1-1.5   c0-0.2,0-0.4,0-0.7C74.9,88.9,74.3,88.3,73.7,88.3z"></path>
	<path d="M74,109.2c-0.6,0-1.1,0.5-1.1,1.1c0,0.6,0.5,1.1,1.1,1.1s1.1-0.5,1.1-1.1C75.1,109.7,74.6,109.2,74,109.2z"></path>
	<path d="M124.2,103.7C124.2,103.7,124.2,103.8,124.2,103.7c0,0.1-0.1,0.1-0.1,0.1C124.2,103.9,124.2,103.8,124.2,103.7z"></path>
	<path d="M123.3,101.8c-0.5,0-1,0.4-1.1,1c0,0.1-0.1,0.2-0.1,0.3c-0.1,0.1-0.1,0.2-0.1,0.3c-0.1,0.2-0.2,0.3-0.3,0.5   c-0.1,0.1-0.2,0.3-0.3,0.4c-0.2,0.3-0.5,0.5-0.7,0.7c-0.3,0.3-0.6,0.5-0.9,0.8c-0.5,0.3-0.5,1.1-0.2,1.6c0.2,0.3,0.5,0.4,0.9,0.4   c0.2,0,0.5-0.1,0.7-0.2c1.3-1,2.6-2.2,3.1-3.8c0.1-0.3,0.2-0.6,0.2-0.9C124.4,102.3,123.9,101.8,123.3,101.8z"></path>
	<path d="M52.8,48.4c0.1-0.2,0.2-0.3,0.3-0.5c0.1-0.1,0.1-0.2,0.2-0.3c0.1-0.1,0.1-0.1,0.2-0.2c0.1-0.1,0.1-0.1,0.2-0.1l0.1-0.1   c0.1,0,0.1-0.1,0.1-0.1l0,0l0,0c0.6,0,1.1-0.5,1.1-1.1c0-0.6-0.5-1.1-1.1-1.1c-0.7,0-1.3,0.3-1.8,0.8c-0.8,0.7-1.3,1.7-1.6,2.7   c-0.2,0.6,0.2,1.2,0.7,1.4c0.1,0,0.2,0.1,0.3,0.1c0.2,0,0.4-0.1,0.5-0.1c0.3-0.1,0.4-0.4,0.5-0.7V49c0,0.1,0,0.1-0.1,0.1   C52.7,48.8,52.7,48.6,52.8,48.4z"></path>
	<path d="M53.9,44.9L53.9,44.9L53.9,44.9z"></path>
	<path d="M53.9,44.9L53.9,44.9L53.9,44.9L53.9,44.9z"></path>
	<path d="M145.3,154.5c0.1,0,0.1,0,0.1,0c1.1-0.2,2.3-0.6,3.1-1.5c0.3-0.4,0.6-0.8,0.8-1.3c0.1-0.2,0.1-0.5,0.2-0.7   c0.1-0.1,0.1-0.3,0.1-0.5c0-0.6-0.5-1.1-1.1-1.1c-0.5,0-0.9,0.4-1.1,0.9c-0.1,0.1-0.1,0.3-0.1,0.5c0,0.1-0.1,0.1-0.1,0.2   c-0.1,0.1-0.1,0.1-0.1,0.2c-0.1,0.1-0.1,0.2-0.2,0.3c-0.1,0.1-0.1,0.1-0.2,0.2c-0.1,0.1-0.1,0.1-0.2,0.1c-0.1,0.1-0.1,0.1-0.2,0.1   c-0.1,0.1-0.3,0.1-0.5,0.2s-0.5,0.1-0.7,0.2c0,0-0.1,0-0.1,0c-0.6,0.1-1,0.7-0.9,1.3C144.3,154.1,144.8,154.5,145.3,154.5z"></path>
	<path d="M145.6,40.4C145.6,40.4,145.6,40.5,145.6,40.4L145.6,40.4C145.5,40.5,145.6,40.4,145.6,40.4z"></path>
	<path d="M148.9,70.8L148.9,70.8L148.9,70.8c-0.1,0-0.1,0-0.1-0.1C148.9,70.7,148.9,70.7,148.9,70.8z"></path>
</g>
</svg>
