<?xml version="1.0" encoding="UTF-8"?>
<svg xmlns="http://www.w3.org/2000/svg" xmlns:xlink="http://www.w3.org/1999/xlink" version="1.1" id="Ebene_1" x="0px" y="0px" width="200px" height="200px" viewBox="0 0 200 200" style="enable-background:new 0 0 200 200;" xml:space="preserve">
<style type="text/css">
	.st0{fill:#FFD126;}
</style>
<circle class="st0" cx="100" cy="100" r="100"></circle>
<g>
	<path d="M73.5,86.5c0,0.1,0,0.1,0,0.1C73.5,86.5,73.5,86.5,73.5,86.5z"></path>
	<path d="M71.7,75.9c0-0.1,0-0.1,0-0.1C71.7,75.8,71.7,75.9,71.7,75.9z"></path>
	<path d="M146.1,98L146.1,98L146.1,98z"></path>
	<path d="M53.9,87.9c-7.9-6-10.3,2.5-20.2-1.4c1,7.4,11,1.5,15.5,1.6C50.7,88.7,55.9,92.1,53.9,87.9z"></path>
	<path d="M55.3,76.9c-4.2-3.5-9-1.3-13.1,1.1c0,0,0,0,0.1,0c-0.1,0-0.1,0.1-0.1,0.1c0,0,0,0,0.1,0c-3.1,1.7-7.7,2.1-10-1.1   c-0.5-0.4-1.3-0.3-1.6,0.2c-0.9,3.2,4.3,4.5,6.7,4.7c5,0.4,8.7-4.6,13.5-4.4c2.2,0.5,4.1,1.9,5.7,3.3   C60.4,81.6,57.2,77.4,55.3,76.9z"></path>
	<path d="M35.5,70.7c4.9,4.5,9.5-2.2,14.5-1.5c1.4,1,5.9,5.1,4.8,0.9c-5.4-8.9-13.5,4.1-19-2.4C33.5,64.1,32.6,69.7,35.5,70.7z"></path>
	<path d="M141.3,78.7c-5.3-23.3-39.3-9.6-30.6,11.5C118.5,109.5,147.1,98.2,141.3,78.7z M111.9,83.2c0.1-7.8,6.8-15.1,14.8-14.5   c-5.1,4.8-9.9,9.8-14.8,14.8C111.9,83.4,111.9,83.3,111.9,83.2z M115.1,92.3c-0.1,0.1-0.2,0.2-0.3,0.3c-7.5-8.7,9.3-15.7,13.8-22.5   l0,0c0.3-0.3,0.7-0.5,0.9-0.9c2.5,0.8,4.9,1.9,6.7,3.8C129,79.3,122.1,85.8,115.1,92.3z M124.4,95.3c0.1-0.1,0.1-0.1,0.1-0.1   c-0.8,0.7-1.7,1.5-2.5,2.3c-2.1-0.5-4.1-1.6-5.6-3.1c6.9-6.5,13.7-13,20.9-19.1c1.1,1.7,1.7,3.7,2,5.8c-5.3,4-9.6,9.8-14.8,14.1   c0.1-0.1,0.1-0.1,0.1-0.1C124.6,95.1,124.5,95.2,124.4,95.3z M139.5,83.9c-0.1,7.7-6.5,14.9-14.5,14c5.1-4.5,9.7-9.4,14.5-14.1   C139.5,83.8,139.5,83.9,139.5,83.9z"></path>
	<path d="M126.1,96.9c-0.1,0.1-0.1,0.1-0.1,0.1C126.1,97,126.1,96.9,126.1,96.9z"></path>
	<path d="M149.9,76.6c-12.7-38.3-60.2-0.7-86.1-14.3l0,0l0,0l0,0c-3.9-3.5-5.1,38.5-1.7,36.6l0,0c3-1,6.3-1.3,9.1-2.6   c13.5,2.9,27.1,5.3,40.7,8.1c-0.5,3.1-1.3,6.1-1.8,9.1c0,0,0,0-0.1,0c0,0,0,0,0.1,0l0,0c-6.6-4.9-7.2,11.5-2.3,12.1   c-0.6,8.5-7.9,22.3,1.7,27.7c-0.9,8.4-4.8,14.4-13.4,9.5c-2.7,5.4,15.1,8.5,15.6-8.8c5.5,1.4,9.1-4,10.7-8.6l0,0   c0-0.1,0.1-0.1,0.1-0.1c0,0,0,0,0,0.1c2.5-6.9,4.2-14,6.1-21.1l0,0c1.3-5.9,3.1-11.9,3.6-18C145.9,104.8,153.3,89.4,149.9,76.6z    M72,71.3c-0.3,5-0.5,9.9-0.7,14.9l0,0c0,0.1,0,0.1,0,0.2l0,0v0.1l0,0c-0.2,2.7-0.3,5.3-0.8,7.9c-2.7,0.4-5.3,1.3-7.9,1.9   c0.3-10.5,0.4-21,1.1-31.5c2.8,1.1,5.7,2,8.5,2.9c0,1.3-0.1,2.5-0.1,3.7C72,71.4,72,71.4,72,71.3z M107.4,123.1   c-0.9-2.4-0.1-5.3-0.1-7.9c0.7,0.2,1.4,0.5,2.1,0.8c-0.5,2.5-0.9,4.9-1.4,7.3C107.8,123.2,107.6,123.1,107.4,123.1z M129.7,106.5   c-1,5.7-2.3,11.4-3.7,17.1l0,0c0,0.1-0.1,0.1-0.1,0.2c0,0,0,0,0-0.1c-1.8,6.9-3.4,13.9-5.9,20.6v-0.1c-1.3,5.5-7.2,10.4-12,5.3   c-3.5-14.4,4.5-30.2,5.9-44.8C119.2,105.7,124.5,106.7,129.7,106.5L129.7,106.5z M148.1,86.8c-8.2,33.7-52.3,8.3-75.3,7.5   c0.9-6.1,0.9-12.2,1.2-18.3c0,0.1,0,0.1,0,0.1c0-0.1,0-0.2,0-0.3c0,0.1,0,0.1,0,0.1c0.1-2.6,0.3-5.2,0.4-7.9   C98.7,68.3,150.3,44.7,148.1,86.8z"></path>
	<path d="M124.3,151.5c-1.8-0.7-2.1,2.2-3.3,2.9c-0.8,1.3-3.5,1.7-2.9,3.5C120.1,160.2,126.5,153.5,124.3,151.5z"></path>
	<path d="M139.2,59.3C139.2,59.3,139.1,59.3,139.2,59.3c3.6,0.4,5.1,4.4,7.7,6.1c3.5-2.2-4.4-8-7.1-8.4l0,0   C138.3,56.6,137.9,58.9,139.2,59.3z"></path>
	<path d="M134.4,136.5c3.5,3.2,3.1,9.9-0.7,12.5c-0.5,7.9,10.3-8.7,2.3-14.1C134.9,134,133.4,135.5,134.4,136.5z"></path>
</g>
</svg>
