<?xml version="1.0" encoding="UTF-8"?>
<svg xmlns="http://www.w3.org/2000/svg" xmlns:xlink="http://www.w3.org/1999/xlink" version="1.1" id="Ebene_1" x="0px" y="0px" width="200px" height="200px" viewBox="0 0 200 200" style="enable-background:new 0 0 200 200;" xml:space="preserve">
<style type="text/css">
	.st0{fill:#FFD126;}
	.st1{fill:#1D1D1B;}
</style>
<circle class="st0" cx="100" cy="100" r="100"></circle>
<g>
	<path class="st1" d="M165.3,104.5c-1.8-3.4-4.5-5.5-7.9-6.3c-2.7-1-5.8-1.3-8.8-1.2c4.1-2.5,7-7.9,7.8-12.1c1-5.8-1-14.6-7.1-17   c-0.2-0.1-0.4,0-0.5,0.2c-1.1-0.5-2.3-0.9-3.6-1.2c-2.7-0.5-5.5-0.6-8.2-0.8c-3.2-0.2-6.3-0.5-9.5-0.8c-12.7-1.1-25.4-2.5-38.1-4.1   c-0.2,0-0.4,0-0.5,0.1c-0.2,0-0.4-0.1-0.6-0.1c-0.2,0-0.4,0-0.6-0.1c-5.5-2.1-11.7-1.3-16.9,2c-1.3,0.9-2.5,1.8-3.6,2.9   c-3.6,2.4-6.2,7.1-7.4,11c-1.7,5.7-0.9,11.6,1.8,16.8c-0.2,0.1-0.3,0.3-0.5,0.4c-0.8,0.3-1.6,0.6-2.5,1c0,0-0.1,0-0.1,0.1   c-0.1,0-0.3,0-0.4,0c-0.2,0-0.4,0.1-0.5,0.2c-0.2,0-0.4,0-0.6,0c-0.2,0-0.4,0-0.6,0c-5.8-1.1-11.7,0.9-16.2,5.1   c-3.7,3.6-6.1,8.3-6.9,13.4c-1.9,5.1-0.4,13,1.9,17.2c2.1,3.9,7.6,7,11.5,3.7c0.3-0.1,0.6-0.2,1-0.3c0.9,0.6,1.9,1.1,2.8,1.4   c2.2,0.6,4.9,1.7,7.4,1.5c3.3-0.3,10.1-1.6,10.3-1.7c2-0.4,4.1-0.7,6.1-1.1c0.7,1.4,1.5,2.7,2.5,3.8c0.5,0.7,1.2,1.4,1.8,1.9   c1.2,1,2.7,1.5,4.1,1.5c0.1,0,0.1,0.1,0.2,0.1c1.5,0.4,3.3,0.4,4.7-0.2c0.9,0.6,1.9,1.1,2.8,1.4c2.2,0.6,4.9,1,7.4,0.8   c2.1,0.3,4.4,0.1,6.6-0.3c4,0.5,8.2,0.1,12.2-0.7c5.8-1,11.6-2.2,17.3-3.8c5.2-1.5,10.3-3.6,15.2-6.1c1.4-0.7,2.8-1.4,4.3-2.2   c2.7-1,5.3-2.2,7.6-3.9C167.9,122.1,169.2,112,165.3,104.5z M127.8,66.7c5.3,0.4,10.7,0.5,15.9,1.3c2,0.3,4,0.8,5.7,1.8   c1.2,1.7,2.7,3.2,3.6,5.1c0.7,1.4,1.2,3,1.5,4.6c0.4,3.7-0.4,7.5-2.2,10.7c-2.4,4.2-6.6,6.5-11.3,7.6c-5.3,1.3-10.8,1.8-16.3,2.4   c-4.2,0.5-8.4,0.8-12.6,1.1c5.1-5.1,6.7-13.6,6.3-20.5c-0.3-3.7-1-7.7-2.8-11c-0.9-1.7-2.2-3.4-3.9-4.5   C117,65.8,122.4,66.3,127.8,66.7z M108.5,64.9c3.6,1.4,5.8,3.9,7.2,7.6c1.1,3.1,1.7,6.5,1.8,9.8c0.1,3.4-0.3,6.8-1.3,10.1   c-1,3.4-2.8,6.1-4.8,9c-1.1,0.1-2.2,0.1-3.3,0.2c-0.2,0-0.5,0-0.7,0c1.5-1.2,2.6-3.1,3.5-4.8c2-3.8,3.8-7.9,4-12.2   c0.2-4.2-0.6-8.9-2.2-12.9c-1.1-2.7-2.7-5.2-5.1-6.8C107.9,64.9,108.2,64.9,108.5,64.9z M105.3,64.6c6.8,3.3,8.8,12.2,8.8,19.1   c0,4.3-1.7,8.3-3.5,12.2c-1.1,2.3-2.4,4.3-4.3,5.8c-2.9,0.1-5.8,0.2-8.8,0.2c7.5-3.3,11.1-11.8,11.3-19.5c0.1-4.3-0.5-9-2.3-12.9   c-0.8-1.7-2.1-3.8-3.8-5.1C103.5,64.4,104.4,64.5,105.3,64.6z M99.4,64c1.7,0.8,3.1,1.4,4.3,2.9c1.1,1.3,1.8,2.9,2.4,4.5   c1.3,3.6,1.8,7.5,1.8,11.3c-0.1,7.8-3.8,15-10.7,18.9c-0.1,0.1-0.1,0.2,0,0.2c-1.3,0-2.7,0-4,0c3.1-1.3,5.9-4.5,7.7-7   c2.4-3.5,3.9-7.6,4-11.9c0.1-2.6-0.2-5.2-0.6-7.7c-0.4-2.3-0.8-4.7-1.7-6.8c-0.8-1.8-2.1-3.4-3.8-4.6C98.9,63.9,99.2,63.9,99.4,64z    M92.9,63.2c0,0.1,0.1,0.2,0.3,0.2c2.3,0.3,4.3,0.6,6,2.1c1.6,1.4,2.5,3.3,3,5.3c1.2,4.3,2,9,1.6,13.5c-0.4,3.7-1.8,7.4-4,10.4   c-1.1,1.6-2.4,3-3.9,4.2c-1.1,0.9-2.3,1.5-3.4,2.3c-0.1-0.1-0.1-0.1-0.2-0.2c-0.8-0.4-1.7-0.6-2.6-0.5c1.1-0.5,2-1.4,2.5-2.6   c0-0.1,0-0.2,0-0.3c6.9-6.3,9.5-16.4,6.3-25.5c-0.1-0.2-0.2-0.2-0.4-0.2c-1.2-3.4-3.4-6.4-6.6-8.7c-0.2-0.1-0.3-0.2-0.5-0.3   C91.7,63,92.3,63.1,92.9,63.2z M61.4,85.7c0-0.3,0-0.5-0.1-0.8c0-0.2,0-0.4,0-0.6c0-0.3,0-0.5,0-0.8c0-0.2,0-0.4,0-0.6   c0-0.3,0-0.5,0-0.8c0-0.2,0-0.3,0-0.5c0-0.3,0.1-0.6,0.1-0.9c0-0.1,0-0.3,0.1-0.4c0.1-0.4,0.1-0.9,0.2-1.3c0.1-0.4,0.2-0.8,0.3-1.3   c0.1-0.3,0.2-0.6,0.3-0.9c0-0.1,0-0.2,0.1-0.3c0.1-0.4,0.3-0.8,0.4-1.2c0.2-0.4,0.3-0.8,0.5-1.2c1.9-3.3,4.6-5.5,7.2-8.6   c0.2-0.2,0.2-0.4,0.1-0.6c0.7-0.5,1.4-1,2.2-1.4c0.1,0,0.2-0.1,0.2-0.1c0.3-0.2,0.6-0.3,0.9-0.5c0.4-0.2,0.8-0.4,1.2-0.5   c5.8-2.3,12.1-1.1,16.9,3c5.1,4.4,6.8,10.8,5.2,17.2c-1.4,5.7-4.7,12.8-10.2,15.7c-6.2,3.3-13.4-1.3-16.6-6.7   c-3.2-5.3-2.7-12,1.7-16.4c2.4-2.4,5.4-3.5,8.4-3.4c0.4,0.1,0.7,0.1,1.1,0.1c2.2,0.3,4.3,1.4,6,3.2c2,2,3.2,4.9,2.8,7.8   c-0.5,3.1-2.8,6.1-6,6.7c-3,0.5-6.6-1.4-7.1-4.6c-0.3-2.2,1.2-4,3.4-4.1c2.1-0.1,3.8,1.5,4.5,3.3c0,0,0,0,0,0.1   c0,0.1-0.1,0.1-0.1,0.2c-0.2,0.2-0.3,0.5-0.5,0.7c-0.4,0.4,0.2,0.9,0.6,0.6c0.1-0.1,0.2-0.2,0.3-0.3c0.2,0,0.4,0,0.5-0.3   c0.3-0.6,0.7-1.6,1.2-2.2c0.5-0.1,0.9-0.3,1.3-0.6c0.5-0.3,0.2-1-0.4-1c-0.6,0-1.1,0.2-1.4,0.5c-0.1,0-0.1,0-0.2,0   c-0.1-0.1-0.1-0.1-0.2-0.1c-2.2-0.8-3.7-2.5-4.4-4.7c-0.2-0.5-0.9-0.5-1.2-0.1c-0.3,0.6-0.5,1.2-0.4,1.7c-1.4,1.4-5.4,2.4-6.4,2.6   c-0.5,0.1-0.7,0.7-0.4,1c0.7,2.7,2.2,5.6,4.3,7.4c1.5,1.3,3.6,2.1,5.6,1.9c0.9,0.2,1.6,0.8,1.9,1.7c0.2,0.5,1,0.3,0.9-0.2   c-0.2-1-0.1-1.9,0.2-2.7c4-1.9,6.6-7.3,5-12c-0.3-1-0.8-2-1.4-2.9c0-0.3-0.1-0.7-0.1-1c0-1,0.3-1.9,0.7-2.8   c0.3-0.5-0.5-0.9-0.8-0.4c-0.6,1-1.8,1.4-2.9,1.1c-2.2-1.5-4.9-2.4-7.6-2.2c-1-0.5-2-1-2.9-1.8c-0.4-0.3-1,0-1,0.5   c0.1,0.7,0.1,1.4,0.1,2.1c0,0,0,0-0.1,0c-4.1,1.7-6.9,5.3-8,9.4c-0.6,0.9-1.3,1.7-2.3,2.1c-0.6,0.3-0.4,1.1,0.2,1   c0.7,0,1.2,0.3,1.4,0.8c-0.1,1.2,0,2.6,0.2,3.6c0.1,1.1,0.4,2.2,0.8,3.3c0.2,0.6,0.5,1.2,0.7,1.8c-0.1,0-0.2,0.1-0.2,0.1   c-2.3-0.6-3.8-1.2-5.3-3.7c-0.2-0.3-1.2-1.8-1.3-2.2c0-0.2,0-0.3-0.1-0.5c0-0.3-0.1-0.6-0.1-0.8C61.5,86.1,61.5,85.9,61.4,85.7z    M76.9,101c1.4,0.5,2.9,0.9,4.4,1c0.4,0.2,0.9,0.3,1.4,0.4c0.3,0.5,0.6,1,0.9,1.6c-1.4,1.2-2.7,2.5-3.6,3.5   C79.2,105.2,78.2,102.9,76.9,101z M79.1,108.3c-0.8,0.8-1.6,1.7-2.3,2.6c-0.4-1.5-0.9-3-1.4-4.5c-0.8-2.2-1.7-4.4-2.9-6.4   c-0.5-0.7-1.1-1.4-1.8-2c0.3,0,0.7-0.1,1-0.1c0.8,0.8,1.6,1.4,2.5,1.9c0.3,0.1,0.6,0.3,0.9,0.4c0.5,0.7,1,1.4,1.4,2.1   C77.5,104.2,78.4,106.2,79.1,108.3z M60.6,96.8c0.5,0,1-0.1,1.5-0.1c0.1,0.1,0.2,0.2,0.3,0.1c1.2-0.1,2.3-0.1,3.4,0   c0.3,0.1,0.7,0.2,1,0.3c0,0,0.1,0.1,0.2,0.1c0.6,0.3,1.3,0.5,1.9,0.7c1.7,1,2.9,2.7,3.8,4.5c1.5,2.9,2.8,6.1,3.5,9.3   c-2.2,3.1-3.8,6.6-4.2,10.6c-0.3,2.4,0,5.1,0.6,7.8c-0.3,0.4-0.6,0.8-0.9,1.1c-0.6,0.7-1.3,1.3-1.9,2c-0.1,0-0.2,0-0.2,0   c-1,0.1-2,0.2-3.1,0.4c0.7-0.7,1.2-1.6,1.4-2.6c0-0.1,0-0.2-0.1-0.3c5.6-7.5,6.3-17.9,1.5-26.2c-0.1-0.2-0.2-0.2-0.4-0.2   c-1.8-3.1-4.6-5.7-8.1-7.3c-0.1-0.1-0.3-0.1-0.4-0.2C60.4,96.9,60.5,96.9,60.6,96.8z M71.4,132.9c0.5-0.5,1-1.1,1.4-1.7   c0.2,0.5,0.3,1,0.5,1.6C72.7,132.7,72.1,132.8,71.4,132.9z M45.3,129.1c-4.1-4.6-4.9-11.3-1.4-16.5c1.9-2.8,4.6-4.5,7.6-4.9   c0.4,0,0.7,0,1.1-0.1c2.2-0.1,4.5,0.5,6.5,2c2.3,1.6,4.1,4.2,4.2,7.1c0.1,3.2-1.6,6.6-4.7,7.7c-2.8,1.1-6.8-0.1-7.8-3.2   c-0.7-2.1,0.4-4.1,2.6-4.7c2-0.5,4,0.8,5.1,2.4c0,0,0,0,0,0.1c0,0.1-0.1,0.1-0.1,0.2c-0.1,0.3-0.3,0.5-0.4,0.8   c-0.3,0.5,0.4,0.9,0.7,0.4c0.1-0.1,0.1-0.2,0.2-0.3c0.2,0,0.4-0.1,0.5-0.4c0.2-0.7,0.4-1.7,0.8-2.4c0.4-0.2,0.8-0.5,1.2-0.8   c0.4-0.4,0-1-0.5-0.9c-0.6,0.1-1,0.4-1.3,0.8c-0.1,0-0.1,0-0.2,0.1c-0.1,0-0.1-0.1-0.2-0.1c-2.3-0.4-4.1-1.7-5.2-3.8   c-0.3-0.5-1-0.4-1.2,0.2c-0.2,0.6-0.2,1.3-0.1,1.8c-1.2,1.7-4.9,3.4-5.8,3.7c-0.5,0.2-0.6,0.8-0.2,1.1c1.2,2.5,3.2,5.1,5.6,6.5   c1.7,1,3.9,1.4,5.8,0.9c0.9,0,1.7,0.5,2.2,1.3c0.3,0.4,1.1,0.1,0.9-0.4c-0.4-1-0.5-1.8-0.3-2.7c3.6-2.7,5.1-8.4,2.7-12.7   c-0.5-0.9-1.2-1.8-2-2.5c-0.1-0.3-0.2-0.6-0.3-0.9c-0.2-1-0.1-1.9,0.2-2.8c0.2-0.6-0.7-0.8-0.9-0.2c-0.4,1.1-1.5,1.7-2.6,1.6   c-2.5-1.1-5.3-1.4-7.9-0.8c-1.1-0.3-2.2-0.6-3.2-1.2c-0.4-0.2-1,0.1-0.8,0.7c0.2,0.7,0.4,1.4,0.5,2.1c0,0,0,0-0.1,0   c-3.7,2.5-5.8,6.5-6.1,10.7c-0.4,1-1,1.9-1.9,2.5c-0.5,0.4-0.2,1.1,0.4,1c0.7-0.2,1.2,0.1,1.6,0.5c0.1,1.2,0.5,2.5,0.9,3.5   c0.4,1.1,0.8,2.1,1.4,3.1c0.3,0.6,0.7,1.1,1.1,1.7c-0.2,0.1-0.3,0.2-0.2,0.4c0.1,0.1,0.1,0.2,0.1,0.3c-0.2,0.3-0.5,0.6-0.8,0.8   c-0.7,0.4-1.2,0-1.9,0.1c-0.2,0-0.4,0.1-0.5,0.2c-1.4-0.9-2.7-2.4-3.4-3.7c-1.1-2-1.8-4.2-2.2-6.5c-0.3-3.4,0.1-6.6,0.7-10.2   c0-0.2,0-0.3-0.1-0.5c1.5-5.1,4.6-9.6,9.1-12.5c5.3-3.3,11.7-3.3,17.1-0.2c5.8,3.4,8.7,9.3,8.3,16c-0.3,5.9-2.2,13.4-7,17.3   C57.4,136.9,49.4,133.7,45.3,129.1z M102.8,139.7c-5.4,4.4-13.5,1.2-17.6-3.5c-4.1-4.6-4.9-11.3-1.4-16.5c1.9-2.8,4.6-4.5,7.6-4.9   c0.4,0,0.7,0,1.1-0.1c2.2-0.1,4.5,0.5,6.5,2c2.3,1.6,4.1,4.2,4.2,7.1c0.1,3.2-1.6,6.6-4.7,7.7c-2.8,1.1-6.8-0.1-7.8-3.2   c-0.7-2.1,0.4-4.1,2.6-4.7c2-0.5,4,0.8,5.1,2.4c0,0,0,0,0,0.1c0,0.1-0.1,0.1-0.1,0.2c-0.1,0.3-0.3,0.5-0.4,0.8   c-0.3,0.5,0.4,0.9,0.7,0.4c0.1-0.1,0.1-0.2,0.2-0.3c0.2,0,0.4-0.1,0.5-0.4c0.2-0.7,0.4-1.7,0.8-2.4c0.4-0.2,0.8-0.5,1.2-0.8   c0.4-0.4,0-1-0.5-0.9c-0.6,0.1-1,0.4-1.3,0.8c-0.1,0-0.1,0-0.2,0.1c-0.1,0-0.1-0.1-0.2-0.1c-2.3-0.4-4.1-1.7-5.2-3.8   c-0.3-0.5-1-0.4-1.2,0.2c-0.2,0.6-0.2,1.3-0.1,1.8c-1.2,1.7-4.9,3.4-5.8,3.7c-0.5,0.2-0.6,0.8-0.2,1.1c1.2,2.5,3.2,5.1,5.6,6.5   c1.7,1,3.9,1.4,5.8,0.9c0.9,0,1.7,0.5,2.2,1.3c0.3,0.4,1.1,0.1,0.9-0.4c-0.4-1-0.5-1.8-0.3-2.7c3.6-2.7,5.1-8.4,2.7-12.7   c-0.5-0.9-1.2-1.8-2-2.5c-0.1-0.3-0.2-0.6-0.3-0.9c-0.2-1-0.1-1.9,0.2-2.8c0.2-0.6-0.7-0.8-0.9-0.2c-0.4,1.1-1.5,1.7-2.6,1.6   c-2.5-1.1-5.3-1.4-7.9-0.8c-1.1-0.3-2.2-0.6-3.2-1.2c-0.4-0.2-1,0.1-0.8,0.7c0.2,0.7,0.4,1.4,0.5,2.1c0,0,0,0-0.1,0   c-3.7,2.5-5.8,6.5-6.1,10.7c-0.4,1-1,1.9-1.9,2.5c-0.5,0.4-0.2,1.1,0.4,1c0.7-0.2,1.2,0.1,1.6,0.5c0.1,1.2,0.5,2.5,0.9,3.5   c0.4,1.1,0.8,2.1,1.4,3.1c0.3,0.6,0.7,1.1,1.1,1.7c-0.2,0.1-0.3,0.2-0.2,0.4c0.1,0.1,0.1,0.2,0.1,0.3c-0.2,0.3-0.5,0.6-0.8,0.8   c-0.7,0.4-2.2,0.2-2.2,0.2c-0.4-0.2-0.8-0.5-1.2-0.8c-0.1-0.1-0.2-0.2-0.4-0.3c-0.4-0.4-0.7-0.8-1.1-1.2c0,0-0.1-0.1-0.1-0.1   c-0.1-0.2-0.2-0.3-0.3-0.5c0-0.1-0.1-0.1-0.1-0.2c-0.1-0.2-0.2-0.4-0.4-0.6c-1.8-3.3-2.6-7.1-2.6-10.9c0.1-7.4,3.7-14.8,10-18.7   c5.3-3.3,11.7-3.3,17.1-0.2c5.8,3.4,8.7,9.3,8.3,16C109.6,128.2,107.6,135.8,102.8,139.7z M108.1,142C108,142,108,142,108.1,142   c-0.2,0-0.3,0-0.3,0.1c-0.5,0-0.9,0-1.4,0c0-0.1,0-0.1-0.1-0.2c0,0,0,0-0.1-0.1c-0.1-0.1-0.1-0.1-0.2-0.1c-0.1,0-0.2,0-0.3,0   c-0.1-0.1-0.1-0.2-0.1-0.4c0,0,0.1-0.1,0.1-0.1c0.4-1.1,2.1-3.3,2-3.4c5.6-7.5,6.3-17.9,1.5-26.2c-0.1-0.2-0.2-0.2-0.4-0.2   c-1.8-3.1-4.6-5.7-8.1-7.3c-0.2-0.1-0.3-0.2-0.5-0.2c0.6,0,1.2-0.1,1.8-0.1c0.1,0.1,0.2,0.2,0.3,0.1c2.3-0.2,4.3-0.2,6.3,1   c1.8,1,3,2.8,4,4.6c2,4,3.7,8.5,4.1,13c0.3,3.7-0.4,7.6-2,11c-0.8,1.7-1.8,3.4-3.1,4.9C110.6,139.7,109.2,140.8,108.1,142z    M109.4,141.8c2.8-1.9,5-5.5,6.2-8.3c1.7-3.9,2.4-8.2,1.8-12.4c-0.4-2.6-1.1-5-2-7.5c-0.8-2.2-1.7-4.4-2.9-6.4   c-1.1-1.6-2.7-3-4.6-3.8c0.2,0,0.4,0,0.6,0c1.8,0.5,3.3,0.8,4.8,2.1c1.3,1.1,2.3,2.5,3.2,4c1.9,3.3,3.2,7,3.8,10.8   c1.3,7.7-0.9,15.4-6.9,20.6c-0.1,0.1-0.1,0.2,0,0.2C112,141.3,110.7,141.5,109.4,141.8z M113.7,141c6.7-4.6,8.7-13.6,7.4-21.3   c-0.7-4.2-2.2-8.7-4.7-12.2c-1.1-1.6-2.7-3.3-4.6-4.3c0.9-0.1,1.7-0.1,2.6-0.2c7.3,1.9,10.9,10.3,12.2,17.1   c0.8,4.3-0.1,8.5-1.2,12.6c-0.7,2.4-1.5,4.7-3.2,6.5C119.4,139.8,116.5,140.4,113.7,141z M124,138.7c-0.2,0.1-0.5,0.1-0.7,0.2   c1.3-1.5,2-3.5,2.5-5.3c1.2-4.1,2.2-8.5,1.6-12.8c-0.6-4.2-2.3-8.7-4.5-12.3c-1.5-2.4-3.6-4.6-6.2-5.8c0.3,0,0.6-0.1,0.9-0.1   c3.7,0.7,6.4,2.7,8.4,6.1c1.7,2.8,2.9,6,3.6,9.3c0.7,3.3,0.9,6.8,0.6,10.2c-0.4,3.5-1.6,6.5-3,9.7   C126.1,138.2,125.1,138.5,124,138.7z M161.4,124.1c-3.7,1.7-7,4.2-10.6,6.2c-1.3,0.7-2.6,1.3-3.9,2c-2.2,0.7-4.5,1.4-6.7,2.1   c-4,1.2-8.1,2.4-12.2,3.4c4.1-5.9,4.1-14.6,2.3-21.3c-0.9-3.6-2.4-7.4-4.8-10.3c-1.2-1.5-2.8-2.9-4.7-3.7c5.4-0.5,10.7-1,16.1-1.6   c5.3-0.6,10.6-1.5,15.9-1.7c0.3,0,0.6,0,0.9,0c0.9,0,1.8,0,2.7,0.2c3.1,1,5.7,2.8,7.1,6.1C166.3,111.5,165.3,118.8,161.4,124.1z"></path>
</g>
</svg>
