<?xml version="1.0" encoding="UTF-8"?>
<svg xmlns="http://www.w3.org/2000/svg" xmlns:xlink="http://www.w3.org/1999/xlink" version="1.1" id="Ebene_1" x="0px" y="0px" width="200px" height="200px" viewBox="0 0 200 200" style="enable-background:new 0 0 200 200;" xml:space="preserve">
<style type="text/css">
	.st0{fill:#FFD126;}
	.st1{fill:#2B2929;}
</style>
<circle class="st0" cx="100" cy="100" r="100"></circle>
<path class="st1" d="M149.3,65.1c0.2-1.7-0.3-3.2-1.5-4.6c-1-1.1-1.9-2.4-2.9-3.5c-3.7-4-9.1-7.3-14.9-5.5  c-4.3,1.4-8.5,3.3-11.7,6.5c-2.8,2.7-4.3,5.5-3.6,9c0.2,1-0.5,0.9-1.3,0.9c-3.7,0-7.5-0.7-11.3-0.3c-2.2,0.2-2.4-0.6-1.9-2.2  c2.4-8.1,3.8-16.4,5.3-24.7c0.1-0.7,0.3-1.3,1.5-1.5c7-1.6,14.1-2.5,21.2-3.2c3.3-0.3,3.3-0.3,2.1-3c-0.2-0.4-0.3-0.8-0.2-1.3  c0.1-1.6-0.6-1.9-2.3-1.4c-3.7,0.9-7.3,1.6-11,2.4c-4.8,1.1-9.6,2.1-14.2,3.9c-1.2,0.5-2,1.1-2.2,2.2c-0.3,1.5-0.5,3.1-0.9,4.7  c-1.6,7.4-3.2,14.8-4.7,22.2c-0.3,1.6-1.2,1.9-2.8,1.9c-9.7-0.1-19.4-0.5-29.1-1.1c-0.7-0.1-1.3,0.1-1.8-0.6  c-0.6-0.8-1.1-0.3-1.2,0.3c-0.1,0.6-0.1,1.1,0.1,1.8c1.3,3.6,3.9,6.7,5.5,10.1c2.2,4.4,5.2,8.5,7.5,12.9c0.8,1.6,1.9,3.1,2.9,4.6  c2.4,3.7,5.5,7.1,7.7,11c1.7,2.9,2.9,5.9,5.1,8.5c1.9,2.1,3.1,4.4,3.7,6.8c1.1,4.9,0.7,9.8,0.8,14.7c0.1,1.7,0.1,3.3,0.3,5  c-0.2,4.3-0.6,8.5-0.8,12.8c-0.1,1.4-0.4,2-2,1.9c-2.9-0.1-5.7,0.3-8.4,1.1c-2.7,0.7-5.4,1.7-7.8,3.3c-2.7,1.9-3.8,4.3-2.8,6.9  c0.8,2.1,2.6,3.3,4.7,3.9c3,0.9,6.1,1.3,9.2,1.6c6.9,0.8,13.9,0.1,20.7-0.5c3.4-0.3,6.7-0.7,10-1.7c1.8-0.5,3.5-1.3,4-3.3  c0.5-2.2-0.5-3.8-2.1-5.2c-0.5-0.4-0.9-0.7-1.4-1.1c-3.4-2-7.1-3.3-10.9-4.3c-1.1-0.3-2.6,0.2-3.2-0.7c-0.6-0.9-0.5-2.4-0.6-3.6  c-0.1-1.6-0.2-2.9-0.3-4.1c0-0.1,0-0.1,0-0.1c-0.2-8.7-0.3-17.5-0.5-26.2c-0.1-2.9,0.5-5.9,2.4-8.3c2.1-2.7,3.9-5.4,5.5-8.3  c2.5-4.4,6.5-8,8.2-12.7c0.5-1.3,1.3-2.5,2.3-3.6c2.1-2.3,3.5-4.9,4.6-7.7c0.9-2.2,1-2.4,3-0.8c3.2,2.5,7,2.4,10.5,1.6  c6.1-1.4,9.5-5.5,11.5-10.7C150.2,69.6,149.1,67.3,149.3,65.1z M96.3,65.9c1.7-8.3,3.9-16.5,5-24.9c0.3-1.9,1.4-3.3,3.7-3.9  c4.5-1.2,8.9-2.5,13.5-3.3c2.7-0.5,5.5-1.1,8.2-1.9c1.3-0.3,2.3-0.5,2.2,1.1c0,0.5,0.3,0.9,0.5,1.5c-4,0.5-7.9,0.7-11.8,1.3  c-3.9,0.6-7.7,1.5-11.5,2.2c-1.2,0.2-1.7,0.8-1.9,1.9c-1.6,8.3-2.7,16.7-5.3,24.8c-0.1,0.4-0.2,0.9-0.1,1.3c0.1,1.3-0.6,1.7-2,1.6  C94.9,67.3,96.1,66.4,96.3,65.9z M95.1,70.1c0.3-0.9,0.9-1.1,2-0.9c1.3,0.3,0.8,0.9,0.6,1.5c-0.5,2-1.1,4-1.4,6  c-0.2,1.2-0.9,1.1-1.9,1.1c-1.3,0-0.5-0.8-0.8-1.5C94.1,74.4,94.5,72.3,95.1,70.1z M93,95.7c-0.5-0.7,0.7-0.7,1.2-0.9  c1.2,0,1.7,0.5,1.7,1.5s-0.7,1.7-1.7,1.7C92.5,97.8,93.6,96.4,93,95.7z M91.9,94.1c-0.7,2.5-0.7,5-1.1,7.5c-0.1,0.6,0.4,1.6-1.2,1.6  c-1.6,0-1.3-0.8-1.3-1.7c0.2-2.8,0.9-5.5,1.7-8.2c1.1-3.9,1.3-8,2.5-11.9c0.5-1.5,1.1-2.2,3.1-1.6C95.1,84.7,93.1,89.3,91.9,94.1z   M87.6,88.5c-1.6-0.1-3.8,0.5-3.9-2c-0.1-1.7,1.4-2.7,4.3-2.7c1,0.1,1.9,0.8,1.9,2.1C90,87.7,89.2,88.6,87.6,88.5z M66.7,75.7  c-1.3-1.8-2.5-3.6-3.7-5.5c-0.5-0.7-1.4-1.3-0.9-2.1c0.5-0.7,1.6-0.3,2.2-0.4c3.3,0.3,6.4,0.9,9.5,1.2c4.8,0.5,9.7,0.7,14.5,0.3  c1.6-0.1,3.2,0.1,4.8-0.1c1-0.1,0.8,0.5,0.7,0.9c-0.8,2.2-1.1,4.5-1.5,6.8c-0.2,1.1-1.1,1-1.8,1.1c-4,0.6-8.1,0.1-12.1,0  c-3.5-0.1-6.7-1.5-10.3-1.1C67.2,77,67.1,76.2,66.7,75.7z M102.5,162.5c0.4,0.7,1,1.3,1.9,0.7c0.7-0.5,0.1-1.1-0.1-1.7  c-0.3-0.6-0.7-1.2-0.9-2c2.7,0.1,5.3,0.7,7.7,1.7c2.2,0.9,4.4,1.8,6.1,3.4c1.7,1.6,1.6,2.8-0.5,3.6c-3.1,1.1-6.3,1.3-9.5,1.6  c-7.2,0.5-14.5,1.3-21.7,0.6c-2.9-0.3-5.9-0.5-8.7-1.3c-1.5-0.5-2.9-1-3.1-2.7c-0.3-1.7,0.8-2.9,2.1-3.7c4.8-2.9,10.1-4.1,15.6-4.5  c0.9-0.1,0.9,0.3,0.7,1c-0.3,0.9-0.6,1.7-1.5,2.1c-0.5,0.3-0.9,0.6-0.7,1.3c0.3,0.7,0.9,0.7,1.5,0.5c1.7-0.5,2.4-1.9,2.9-3.4  c0.8-2.5,1-5.1,0.9-7.7c-0.3-9.3,0.1-6.5,0.1-13.1c0.3-4.5,0.2-8.1-0.1-14.7c-0.1-1.8,0.3-3.5-0.5-5.3c-0.3-0.7,0.1-1.2,0.8-1.7  c1.1-0.7,2.2-0.4,3.1,0.2c1,0.6,1.4,1.5,1.3,2.7c-0.2,4.8-0.3,9.6-0.5,14.5c-0.1,1,0.1,1.9,0.2,2.9l-0.1,0.4c0,1.1,0.1,4,0.3,7.3  c0,0.2,0,0.4,0,0.6c0,0.8,0,1.4,0.1,1.9c0.2,4,0.4,7.9,0.6,9.2C100.6,159.1,101.5,160.8,102.5,162.5z M117.7,88.3  c-3.8,7.3-8.3,14.2-13,21.1c-1.7,2.4-3.9,3.7-6.9,4.6c-0.9,0.3-1.6-0.1-2.4-0.2c-4.1-0.5-7.1-2.3-8.6-5.7c-1.3-2.9-3.3-5.5-4.9-8.2  c-1.9-3.4-4.3-6.6-6.3-10c-2.1-3.7-5-7.1-6.3-11.2c-0.1-0.1-0.1-0.3-0.2-0.4c0.2,0,0.3,0,0.5,0c7.2,1.4,14.4,2.3,22,1.3  c-0.5,1.5-0.9,2.9-1.4,4.3c-2.2-1.3-4.5-1.3-6.3,0.1c-1.6,1.1-1.3,2.7-0.8,4c0.5,1.5,2.5,1.8,5.9,1.3c0.5,2.5-0.9,4.7-1.4,7.1  c-0.4,2.1-0.8,4.2-0.9,6.3c-0.1,2.3,2.2,1.5,3.5,1.9c1.3,0.3,1.9-0.3,1.8-1.5c-0.1-0.7,0-1.5,0-2.2c-0.1-1.3,0.2-2.3,2.3-2.1  c1.7,0.2,2.6-1.1,2.7-2.3c0.1-1.3-0.6-2.5-2.6-2.4c-0.3,0-0.7-0.1-1-0.1c0.9-4.5,2.9-8.5,3.5-12.9c0.1-1.1,0.7-1.4,1.9-1.3  c4.7,0.5,9.5,0.2,14.3,0.9c2.8,0.4,5.8,0.1,8.9,0.1C120.7,83.4,118.9,85.7,117.7,88.3z M122,78.9c-1.5-0.1-3.1,0-4.6,0  c-6.3-0.4-12.5-0.8-18.8-0.9c-1,0-1.2-0.3-1-1.1c0.5-2.3,1.1-4.5,1.7-6.7c0.1-0.7,0.5-0.9,1.3-0.9c4.5,0.4,9-0.3,13.5,0.3  c0.7,0.1,1.3,0.1,1.7,0.8c0.8,1.7,2.2,2.9,3.9,4c1.4,0.9,2.1,2.3,3.3,3.4C123.2,78.1,123.3,79.1,122,78.9z M125.7,66.8  c1.4,0.1,2.8-0.1,4.2,0c1.3,0.1,2.1,0.6,1.7,2c-0.5,1.7-0.7,3.5-1.1,5.2c-0.3,1.1,0.1,1.6,1.4,1.7c1.7,0.2,3.4,0.5,5.1,0.5  c1.7,0.1,1.7-0.8,1-1.8c-1.1-1.5-2.1-3.1-3.4-4.5c-1.1-1.2-0.9-2.9-2.9-4.1c2.5-0.2,3.2,1.5,4.4,2.2c1.6,0.9,2.9,2.3,4.3,3.5  c0.4,0.3,0.9,0.9,1.6,0.5c0.5-0.3,0.6-0.8,0.6-1.3c-0.1-1.5,0.2-3.1-0.3-4.5c-0.1-0.4-0.2-0.8,0.1-1.2c0.4-0.5,0.9-1.1,0.2-1.7  c-0.7-0.7-1.6-0.5-2.3-0.2c-1.9,0.6-3.7,1.5-5.9,1.6c-0.2,0.1-0.5,0.1-0.5,0.1c-0.1-0.2,0-0.3,0.2-0.3c0.9-1.4,1.8-2.9,2.7-4.3  c0.5-0.7,0.2-1.1-0.6-1.5c-2.5-1.4-5.3-1.5-8.5-1.9c3.2-1.5,6.1-1.3,8.8-0.1c2.1,1,4.4,1.8,5.9,3.6c1.2,1.5,2.8,2.7,2.2,4.9  c-0.3,1,0.7,1.7,0.8,2.6c0.4,5.3-4.1,10.9-11.7,9.6c-1.4-0.3-2.8-0.6-4.2-1c-1.5-0.4-2.1-1.1-1.2-2.5c1-1.7,2.1-3.3,2-5.4  c-0.1-0.9-0.5-0.9-1.3-0.7c-2.5,0.5-5,0.1-7.5,0.2c-0.5,0-0.9-0.1-0.9-0.5c0.3-1.7-0.1-3.6,1.2-5.1c0,0.5,0,0.9,0,1.4  C122.1,66.6,122.2,66.7,125.7,66.8z M131.5,63.5c0.4,0.5,1,1,0.9,1.9c-1.8-0.8-3-1.9-4.3-3.1c-1.3-1.2-2.8-2.2-5-2  c0.5-0.8,1-1.3,1.6-1.7c2.1-1.2,3-1.1,4,0.9C129.5,60.9,130.5,62.1,131.5,63.5z M130.2,58c1.5,0.1,3,0.3,4.5,0.8  c1.7,0.6,1.6,1.3,0.7,2.4c-0.7,0.9-1.3,1.8-2.1,2.8c-1.5-1.7-2.8-3.3-3.7-5.1C129.1,58,129.3,57.9,130.2,58z M123.2,63.2  c0.3-0.7-0.3-1.9,0.5-2.2c1-0.3,2,0.4,2.7,1c1.5,1.2,2.7,2.5,4.1,3.9c-2-0.6-4.1,0.1-6.2-0.3c-0.9-0.2-1.6-0.2-1.3-1.3  C123.3,64.1,123.1,63.6,123.2,63.2z M132.5,68.7c1.7,2.3,3.1,4.3,4.7,6.4c-1.9,0.4-3.5-0.1-5.2-0.3c-0.3,0-0.8-0.1-0.7-0.5  C132.1,72.7,132.1,70.8,132.5,68.7z M141.5,70.7c0,0.1-0.1,0.1-0.3,0.2c-2.4-1.3-3.9-3.5-6.7-5c2.4-0.6,4.4-1.3,6.3-2  c0.3-0.1,1.1-0.1,0.9,0.4C140.7,66.4,142.1,68.5,141.5,70.7z M121.2,72.8c-1.4-1-3.4-1.4-3.9-3.3C121,68.5,120.2,71.5,121.2,72.8z   M125.5,74.3c-1.2-0.1-2.3-1.5-3-2.6c-0.4-0.7-0.7-1.4-1.2-2.2c1.9,0.1,3.6,0.3,5.3,0.1c1.1-0.1,1.5,0.3,0.9,1.2  c-0.2,0.3-0.3,0.7-0.5,0.9C126.4,72.6,126.4,74.4,125.5,74.3z M140.7,79.8c-4.7,3.2-10.5,0.7-13.7-2.1c-0.3-0.2-0.3-0.5-0.1-0.7  c0.3-0.5,0.7-0.2,1,0c2.3,1.3,5,1.2,7.6,1.5c5.1,0.7,10.1-3.9,11-8.1c0.3-1.8-0.6-3.5-0.5-5.1c0.1-1.9-0.5-3.3-1.7-4.6  c-4-4.3-10.4-7.6-17.5-4.9c-3.8,1.4-7.5,6.7-7.1,10.5c0.1,1.1-0.1,1.4-1.3,1.4c-1.1,0-1.5-0.3-1.5-1.3c-0.3-5.7,4-9.5,9.5-11.5  c0.6-0.2,1.1-0.5,1.7-0.8c1.6-1.1,3.4-1.6,5.5-1.5c4.9,0.3,7.9,3,10.6,6.1c0.7,0.8,1.1,1.7,1.8,2.4c1,1.1,2,2.2,1.3,3.9  c-0.3,0.8,0.5,1.9,0.7,2.9C148.3,73.5,144.9,76.9,140.7,79.8z"></path>
<path class="st1" d="M71.5,76.3c-0.1-0.1-0.1-0.3-0.2-0.4c0.2,0,0.3,0,0.5,0C71.7,76,71.7,76.1,71.5,76.3z"></path>
<path class="st1" d="M106.9,81.8c-0.1,1.1-2.5,2.9-3.8,2.9c-0.9-0.1-2.9-2.5-2.7-3.5c0.1-1,1.9-2.2,3.2-2.1  C105,79.1,107,80.7,106.9,81.8z M103.1,79.9c-1.3,0.3-1.1,1.4-1.2,2.1c-0.1,0.7,0.4,1.8,1.4,1.7c1.1-0.2,2.6-0.7,2.5-2.1  C105.7,80.5,104.7,80,103.1,79.9z"></path>
<path class="st1" d="M98.6,105.1c-1.3,0.1-2.3-0.3-2.1-1.5c0.1-0.9,0.8-1.7,2-1.6c1.1,0.1,2.1,0.4,2,1.5  C100.5,104.5,99.7,105,98.6,105.1z"></path>
<path class="st1" d="M108.6,89.5c-1.7,0.5-1.9-0.8-2.1-1.8c-0.1-1.1,1.4-2.3,2.6-2.1c1.7,0.3,1.6,1.5,1.6,2.5  C110.8,89.4,110.1,89.8,108.6,89.5z M109.9,87.9c0-0.7,0.1-1.3-0.9-1.3c-0.9,0-1.3,0.5-1.4,1.1c-0.1,0.9,0.7,0.9,1.5,1  C109.9,88.8,109.9,88.4,109.9,87.9z"></path>
</svg>
